<svg xmlns="http://www.w3.org/2000/svg" viewBox="0 0 24 24">
  <path d="M24,24H0V0H24Z" fill="none"/>
  <path d="M13.5,15h6a.5.5,0,0,1,.5.5v1a.5.5,0,0,1-.5.5h-6a.5.5,0,0,1-.5-.5v-1A.5.5,0,0,1,13.5,15Zm4-8h-4a.5.5,0,0,0-.5.5v1a.5.5,0,0,0,.5.5h4a.5.5,0,0,0,.5-.5v-1A.5.5,0,0,0,17.5,7ZM9.43219,2.42,9.05188,5.07007a7.497,7.497,0,0,0-1.73743.98l-2.56-1a.512.512,0,0,0-.62708.22L2.07135,8.73a.48406.48406,0,0,0,.12329.64l2.16919,1.62994A8.31923,8.31923,0,0,0,4.292,12.00006a7.55733,7.55733,0,0,0,.07184.97L2.19464,14.63a.48409.48409,0,0,0-.12329.64l2.056,3.46a.5238.5238,0,0,0,.62708.22l2.56-1.00995a7.18677,7.18677,0,0,0,1.73743.98993L9.43219,21.58a.51583.51583,0,0,0,.51392.42H11V15.33929a3.45318,3.45318,0,0,1,0-6.69012V2H9.94611A.51577.51577,0,0,0,9.43219,2.42ZM14.5,3h-1a.5.5,0,0,0-.5.5v1a.5.5,0,0,0,.5.5h1a.5.5,0,0,0,.5-.5v-1A.5.5,0,0,0,14.5,3Zm0,16h-1a.5.5,0,0,0-.5.5v1a.5.5,0,0,0,.5.5h1a.5.5,0,0,0,.5-.5v-1A.5.5,0,0,0,14.5,19Zm7-8h-8a.5.5,0,0,0-.5.5v1a.5.5,0,0,0,.5.5h8a.5.5,0,0,0,.5-.5v-1A.5.5,0,0,0,21.5,11Z" fill="#8f9dc9"/>
</svg>
