<?xml version="1.0" standalone="no"?><!DOCTYPE svg PUBLIC "-//W3C//DTD SVG 1.1//EN" "http://www.w3.org/Graphics/SVG/1.1/DTD/svg11.dtd"><svg t="1660724924502" class="icon" viewBox="0 0 1024 1024" version="1.1" xmlns="http://www.w3.org/2000/svg" p-id="2839" xmlns:xlink="http://www.w3.org/1999/xlink" width="200" height="200"><defs><style type="text/css"></style></defs><path d="M209.92 517.12c0-30.72 5.12-66.56 15.36-97.28L51.2 286.72C15.36 358.4 0 435.2 0 512c0 81.92 20.48 158.72 51.2 225.28l174.08-133.12c-10.24-25.6-15.36-56.32-15.36-87.04" fill="#FBBC05" p-id="2840"></path><path d="M522.24 209.92c76.8 0 143.36 25.6 194.56 66.56l153.6-148.48C773.12 51.2 655.36 0 522.24 0 317.44 0 138.24 117.76 51.2 286.72l174.08 133.12c46.08-122.88 158.72-209.92 296.96-209.92" fill="#EA4335" p-id="2841"></path><path d="M517.12 808.96c-138.24 0-250.88-87.04-291.84-204.8L51.2 737.28c87.04 168.96 261.12 286.72 471.04 286.72 128 0 250.88-46.08 337.92-128l-168.96-133.12c-46.08 30.72-107.52 46.08-174.08 46.08" fill="#34A853" p-id="2842"></path><path d="M1013.76 512c0-30.72-5.12-61.44-10.24-92.16h-486.4V614.4h281.6c-15.36 66.56-51.2 112.64-107.52 148.48l168.96 133.12c87.04-87.04 153.6-220.16 153.6-384" fill="#4285F4" p-id="2843"></path></svg>