<?xml version="1.0" standalone="no"?><!DOCTYPE svg PUBLIC "-//W3C//DTD SVG 1.1//EN" "http://www.w3.org/Graphics/SVG/1.1/DTD/svg11.dtd"><svg t="1654142346295" class="icon" viewBox="0 0 1024 1024" version="1.1" xmlns="http://www.w3.org/2000/svg" p-id="1992" xmlns:xlink="http://www.w3.org/1999/xlink" width="200" height="200"><defs><style type="text/css"></style></defs><path d="M716.8 0v819.2H0V0z" fill="#009FFF" p-id="1993"></path><path d="M604.16 51.2L1024 296.96v486.4L604.16 1024l-419.84-240.64V296.96z" fill="#00FFCD" opacity=".7" p-id="1994"></path><path d="M604.16 138.24l343.04 199.68v399.36l-343.04 199.68-343.04-199.68V337.92l343.04-199.68z m0 81.92L332.8 378.88v312.32l271.36 158.72 271.36-158.72V378.88l-271.36-158.72z m0 460.8C522.24 680.96 460.8 614.4 460.8 537.6s66.56-143.36 143.36-143.36 143.36 66.56 143.36 143.36-61.44 143.36-143.36 143.36z m0-71.68c40.96 0 71.68-30.72 71.68-71.68s-30.72-71.68-71.68-71.68-71.68 30.72-71.68 71.68 30.72 71.68 71.68 71.68z" fill="#FFFFFF" p-id="1995"></path></svg>