<svg xmlns="http://www.w3.org/2000/svg" viewBox="0 0 24 24">
  <path d="M12,2.25A10,10,0,0,0,8.84,21.74c.5.09.68-.22.68-.49s0-.86,0-1.7c-2.78.61-3.37-1.34-3.37-1.34A2.69,2.69,0,0,0,5,16.75c-.91-.62.07-.61.07-.61a2.1,2.1,0,0,1,1.53,1A2.12,2.12,0,0,0,9.54,18a2.16,2.16,0,0,1,.63-1.33c-2.22-.26-4.55-1.11-4.55-5A3.86,3.86,0,0,1,6.65,9a3.59,3.59,0,0,1,.1-2.65s.84-.26,2.75,1A9.86,9.86,0,0,1,12,7.08a9.86,9.86,0,0,1,2.5.34c1.91-1.29,2.75-1,2.75-1A3.59,3.59,0,0,1,17.35,9a3.86,3.86,0,0,1,1,2.68c0,3.85-2.34,4.69-4.57,4.94a2.39,2.39,0,0,1,.68,1.85c0,1.34,0,2.42,0,2.74s.18.58.69.48A10,10,0,0,0,12,2.25Z" fill="#f6f6f6"/>
</svg>
