<svg xmlns="http://www.w3.org/2000/svg" viewBox="0 0 200 50"><path d="M25.65155,32.58773a15.04767,15.04767,0,0,1-21.219-21.34209l10.589-10.589V5.95116l-.985.985L7.01826,13.95444A11.26031,11.26031,0,0,0,22.94275,29.87892a11.19714,11.19714,0,0,0,0-15.92448l2.7088-2.7088A15.061,15.061,0,0,1,25.65155,32.58773ZM20.35707,6.64888a1.97,1.97,0,1,0,1.97,1.97A1.97,1.97,0,0,0,20.35707,6.64888Z" fill="#ee4c2c"></path><path d="M53.02688,24.78966H48.47117V36.48677H45.0236V3.20131h8.37266c8.742,0,12.92839,4.30946,12.92839,10.34271C66.44777,20.97271,61.27642,24.78966,53.02688,24.78966Zm.36938-18.26391h-4.802V21.8346l4.67884-.12313c6.2795-.12313,9.72707-2.58567,9.72707-7.757C63.00021,9.11143,59.55264,6.52575,53.39626,6.52575Zm37.84117,5.66387H87.78986L80.27909,32.30043l-7.6339-20.11081h-3.5707l9.48082,24.05089L76.95465,40.55c-1.84691,4.67884-3.20131,5.66386-5.04822,5.66386a7.62929,7.62929,0,0,1-3.69383-1.10814l-.985,3.07818A11.37921,11.37921,0,0,0,71.90643,49.292c3.32443,0,5.66386-1.72379,7.88015-7.6339l1.97-5.29448ZM114.0981,6.52575V3.32444H87.33839V6.52575H99.0355V36.60989h3.44757V6.52575Zm9.72706,30.69978c-6.772,0-11.69711-5.04822-11.69711-12.80525s5.17135-12.92839,12.0665-12.92839,11.6971,5.04823,11.6971,12.80526C135.76852,32.05418,130.59716,37.22553,123.82516,37.22553Zm.12313-22.65545c-5.17135,0-8.4958,4.06321-8.4958,9.8502,0,5.91011,3.44757,9.97332,8.61892,9.97332s8.4958-4.06321,8.4958-9.8502C132.56721,18.51016,129.11965,14.57008,123.94829,14.57008Zm20.19289,6.23846c1.97005-4.30946,4.30946-6.2795,6.89515-6.2795a7.62932,7.62932,0,0,1,3.69382,1.10814L155.592,12.559a9.70742,9.70742,0,0,0-4.30946-1.10815c-3.20132,0-5.54073,2.09317-7.1414,5.17135V11.45085l-3.32443.73877V36.60989h3.32443Zm32.05418,14.447-.73876-3.07818a12.48924,12.48924,0,0,1-6.772,1.97c-5.17135,0-8.61892-3.94008-8.61892-9.85019,0-5.787,3.20131-9.72707,8.49579-9.72707a12.1833,12.1833,0,0,1,6.772,1.97l.86189-2.95506a13.87587,13.87587,0,0,0-7.6339-2.09317c-6.89513,0-11.94335,5.29448-11.94335,12.92839,0,7.51077,4.5557,12.80525,11.94335,12.80525A15.63364,15.63364,0,0,0,176.19536,35.25549Zm20.35707,1.39544H200V19.98769c0-5.29448-2.955-8.37267-7.6339-8.37267a12.39006,12.39006,0,0,0-8.49579,3.817V0l-3.32444.73876V36.60989h3.32444V18.09973a10.99181,10.99181,0,0,1,7.51077-3.44757c3.44757,0,5.17135,1.84692,5.17135,6.15638V36.65093Z"></path></svg>