<?xml version="1.0" encoding="utf-8"?>
<!-- Generator: Adobe Illustrator 23.0.1, SVG Export Plug-In . SVG Version: 6.00 Build 0)  -->
<svg version="1.1" id="_x34_-down" xmlns="http://www.w3.org/2000/svg" xmlns:xlink="http://www.w3.org/1999/xlink" x="0px" y="0px"
	 viewBox="0 0 722 110" style="enable-background:new 0 0 722 110;" xml:space="preserve">
<style type="text/css">
	.st0{fill:#101099;}
	.st1{fill:url(#_x32__5_);}
	.st2{fill:#DDDDDD;}
	.st3{fill:url(#_x32__6_);}
	.st4{fill:url(#_x32__7_);}
	.st5{fill:url(#_x32__8_);}
</style>
<g id="_x34_" transform="translate(0.000000, 20.000000)">
	<rect id="_x33__4_" x="420.5" y="-20" class="st0" width="1" height="41"/>
	
		<linearGradient id="_x32__5_" gradientUnits="userSpaceOnUse" x1="-2993.3987" y1="91.5001" x2="-2992.3987" y2="91.5001" gradientTransform="matrix(-300 0 0 1 -897297 -71.0001)">
		<stop  offset="0" style="stop-color:#DDDDDD"/>
		<stop  offset="1" style="stop-color:#101099"/>
	</linearGradient>
	<rect id="_x32__4_" x="421" y="20" class="st1" width="300" height="1"/>
	<polygon id="_x31__4_" class="st2" points="721.5,70 720.5,70 720.5,20 721.5,20 	"/>
</g>
<g id="_x31_" transform="translate(0.000000, 20.000000)">
	<rect id="_x33__3_" x="300.5" y="-20" class="st0" width="1" height="41"/>
	
		<linearGradient id="_x32__6_" gradientUnits="userSpaceOnUse" x1="-2980.0386" y1="91.5" x2="-2979.0386" y2="91.5" gradientTransform="matrix(300 0 0 1 894011 -71)">
		<stop  offset="0" style="stop-color:#DDDDDD"/>
		<stop  offset="1" style="stop-color:#101099"/>
	</linearGradient>
	<rect id="_x32__3_" x="1" y="20" class="st3" width="300" height="1"/>
	<polygon id="_x31__3_" class="st2" points="0.5,20 1.5,20 1.5,70 0.5,70 	"/>
</g>
<g id="_x32_" transform="translate(240.000000, 0.000000)">
	<polygon id="_x33__2_" class="st0" points="100.5,0 101.5,0 101.5,71 100.5,71 	"/>
	
		<linearGradient id="_x32__7_" gradientUnits="userSpaceOnUse" x1="-4160.1001" y1="111.5" x2="-4159.1001" y2="111.4999" gradientTransform="matrix(100 0 0 1 416011 -41)">
		<stop  offset="0" style="stop-color:#DDDDDD"/>
		<stop  offset="1" style="stop-color:#101099"/>
	</linearGradient>
	<rect id="_x32__2_" x="1" y="70" class="st4" width="100" height="1"/>
	<polygon id="_x31__2_" class="st2" points="0.5,70 1.5,70 1.5,110 0.5,110 	"/>
</g>
<g id="_x33_" transform="translate(240.000000, 0.000000)">
	<polygon id="_x33__1_" class="st0" points="141.5,71 140.5,71 140.5,0 141.5,0 	"/>
	
		<linearGradient id="_x32__8_" gradientUnits="userSpaceOnUse" x1="-4197.3799" y1="111.5" x2="-4196.3799" y2="111.4999" gradientTransform="matrix(-100 0 0 1 -419497 -41)">
		<stop  offset="0" style="stop-color:#DDDDDD"/>
		<stop  offset="1" style="stop-color:#101099"/>
	</linearGradient>
	<rect id="_x32__1_" x="141" y="70" class="st5" width="100" height="1"/>
	<polygon id="_x31__1_" class="st2" points="241.5,110 240.5,110 240.5,70 241.5,70 	"/>
</g>
</svg>
