<?xml version="1.0" encoding="utf-8"?>
<!-- Generator: Adobe Illustrator 23.0.1, SVG Export Plug-In . SVG Version: 6.00 Build 0)  -->
<svg version="1.1" id="_x34_-top" xmlns="http://www.w3.org/2000/svg" xmlns:xlink="http://www.w3.org/1999/xlink" x="0px" y="0px"
	 viewBox="0 0 722 110" style="enable-background:new 0 0 722 110;" xml:space="preserve">
<style type="text/css">
	.st0{fill:#101099;}
	.st1{fill:url(#_x32__5_);}
	.st2{fill:#DDDDDD;}
	.st3{fill:url(#_x32__6_);}
	.st4{fill:url(#_x32__7_);}
	.st5{fill:url(#_x32__8_);}
</style>
<g id="_x34_" transform="translate(0.000000, 20.000000)">
	<rect id="_x33__4_" x="420.5" y="49" class="st0" width="1" height="41"/>
	
		<linearGradient id="_x32__5_" gradientUnits="userSpaceOnUse" x1="-2393.4053" y1="1936.4999" x2="-2392.4053" y2="1936.4999" gradientTransform="matrix(-300 0 0 1 -717299 -1886.9999)">
		<stop  offset="0" style="stop-color:#DDDDDD"/>
		<stop  offset="1" style="stop-color:#101099"/>
	</linearGradient>
	<rect id="_x32__4_" x="421" y="49" class="st1" width="300" height="1"/>
	<polygon id="_x31__4_" class="st2" points="721.5,50 720.5,50 720.5,0 721.5,0 	"/>
</g>
<g id="_x31_" transform="translate(0.000000, 20.000000)">
	<rect id="_x33__3_" x="300.5" y="49" class="st0" width="1" height="41"/>
	
		<linearGradient id="_x32__6_" gradientUnits="userSpaceOnUse" x1="-2384.032" y1="1936.5" x2="-2383.032" y2="1936.5" gradientTransform="matrix(300 0 0 1 715209 -1887)">
		<stop  offset="0" style="stop-color:#DDDDDD"/>
		<stop  offset="1" style="stop-color:#101099"/>
	</linearGradient>
	<rect id="_x32__3_" x="1" y="49" class="st3" width="300" height="1"/>
	<polygon id="_x31__3_" class="st2" points="0.5,0 1.5,0 1.5,50 0.5,50 	"/>
</g>
<g id="_x32_" transform="translate(240.000000, 0.000000)">
	<polygon id="_x33__2_" class="st0" points="100.5,39 101.5,39 101.5,110 100.5,110 	"/>
	
		<linearGradient id="_x32__7_" gradientUnits="userSpaceOnUse" x1="-3328.0801" y1="1936.4999" x2="-3327.0798" y2="1936.5" gradientTransform="matrix(100 0 0 1 332809 -1897)">
		<stop  offset="0" style="stop-color:#DDDDDD"/>
		<stop  offset="1" style="stop-color:#101099"/>
	</linearGradient>
	<rect id="_x32__2_" x="1" y="39" class="st4" width="100" height="1"/>
	<polygon id="_x31__2_" class="st2" points="0.5,0 1.5,0 1.5,40 0.5,40 	"/>
</g>
<g id="_x33_" transform="translate(240.000000, 0.000000)">
	<polygon id="_x33__1_" class="st0" points="141.5,110 140.5,110 140.5,39 141.5,39 	"/>
	
		<linearGradient id="_x32__8_" gradientUnits="userSpaceOnUse" x1="-3353.4001" y1="1936.4999" x2="-3352.3999" y2="1936.5" gradientTransform="matrix(-100 0 0 1 -335099 -1897)">
		<stop  offset="0" style="stop-color:#DDDDDD"/>
		<stop  offset="1" style="stop-color:#101099"/>
	</linearGradient>
	<rect id="_x32__1_" x="141" y="39" class="st5" width="100" height="1"/>
	<polygon id="_x31__1_" class="st2" points="241.5,40 240.5,40 240.5,0 241.5,0 	"/>
</g>
</svg>
