<?xml version="1.0" standalone="no"?>
<!DOCTYPE svg PUBLIC "-//W3C//DTD SVG 1.1//EN" "http://www.w3.org/Graphics/SVG/1.1/DTD/svg11.dtd">
<svg xmlns="http://www.w3.org/2000/svg">
<defs >
<font id="Cousine" horiz-adv-x="1229" ><font-face
    font-family="Cousine"
    units-per-em="2048"
    panose-1="2 7 4 9 2 2 5 2 4 4"
    ascent="1705"
    descent="-615"
    alphabetic="0" />
<glyph unicode=" " glyph-name="space" />
<glyph unicode="!" glyph-name="exclam" d="M689 397H541L517 1348H713L689 397ZM515 0V201H709V0H515Z" />
<glyph unicode="&quot;" glyph-name="quotedbl" d="M908 845H766L726 1484H950L908 845ZM459 845H318L277 1484H501L459 845Z" />
<glyph unicode="#" glyph-name="numbersign" d="M930 833L863 516H1123V408H840L752 0H642L728 408H365L281 0H171L255 408H54V516H279L346 833H105V941H368L457 1349H567L479 941H842L930 1349H1040L952 941H1163V833H930ZM459 833L390 516H752L819 833H459Z" />
<glyph unicode="$" glyph-name="dollar" d="M1150 380Q1150 218 1030 124T686 20V-141H558V20Q136 34 66 379L236 416Q262 290 342 228T558 158V647L528 655Q360 696 282 744T167 861T130 1023Q130 1172 239 1255T558 1346V1476H686V1346Q872 1339 973 1267T1119
1025L945 992Q923 1098 859 1152T686 1213V787Q858 745 935 709T1058 627T1127 521T1150 380ZM302 1018Q302 961 325 923T394 859T558 802V1215Q432 1210 367 1160T302 1018ZM978 383Q978 449 951 492T873 563T686 627V156Q830 165 904 223T978 383Z" />
<glyph unicode="%" glyph-name="percent" d="M221 0H76L1008 1353H1155L221 0ZM291 1361Q574 1361 574 1025Q574 858 501 771T287 684Q146 684 73 770T0 1025Q0 1192 70 1276T291 1361ZM427 1025Q427 1144 396 1198T290 1253Q213 1253 180 1200T147 1025Q147 909
180 853T289 797Q360 797 393 852T427 1025ZM947 665Q1230 665 1230 329Q1230 162 1157 75T943 -12Q802 -12 729 74T656 329Q656 496 726 580T947 665ZM1083 329Q1083 448 1052 502T946 557Q869 557 836 504T803 329Q803 213 836 157T945 101Q1016 101 1049 156T1083
329Z" />
<glyph unicode="&amp;" glyph-name="ampersand" d="M1072 -12Q999 -12 929 23T808 117Q655 -20 461 -20Q262 -20 153 80T43 358Q43 626 335 777Q303 837 282 913T260 1059Q260 1195 352 1276T611 1357Q757 1357 844 1285T932 1090Q932 1015 893 957T779 848T525
722Q657 491 802 333Q890 515 927 739L1072 696Q1028 460 910 234Q953 180 1001 155T1090 129Q1148 129 1185 145V10Q1137 -12 1072 -12ZM780 1085Q780 1155 732 1195T608 1236Q519 1236 464 1187T408 1056Q408 946 469 832Q630 900 679 931T754 1000T780 1085ZM706
217Q526 420 390 658Q211 561 211 362Q211 247 280 179T469 111Q533 111 595 138T706 217Z" />
<glyph unicode="&apos;" glyph-name="quotesingle" d="M684 845H543L502 1484H726L684 845Z" />
<glyph unicode="(" glyph-name="parenleft" d="M529 530Q529 255 614 33T891 -425H701Q509 -189 426 32T342 532Q342 805 424 1024T701 1484H891Q699 1248 614 1026T529 530Z" />
<glyph unicode=")" glyph-name="parenright" d="M885 532Q885 252 803 32T528 -425H336Q532 -184 616 38T700 530Q700 798 616 1020T336 1484H528Q723 1244 804 1026T885 532Z" />
<glyph unicode="*" glyph-name="asterisk" d="M671 1188L935 1291L980 1159L698 1086L883 836L764 764L614 1022L458 766L339 838L528 1086L248 1159L293 1293L560 1186L548 1483H684L671 1188Z" />
<glyph unicode="+" glyph-name="plus" d="M687 608V180H540V608H116V754H540V1182H687V754H1111V608H687Z" />
<glyph unicode="," glyph-name="comma" d="M259 -363L428 299H693L382 -363H259Z" />
<glyph unicode="-" glyph-name="hyphen" d="M334 464V624H894V464H334Z" />
<glyph unicode="." glyph-name="period" d="M496 0V299H731V0H496Z" />
<glyph unicode="/" glyph-name="slash" d="M114 -20L935 1484H1113L296 -20H114Z" />
<glyph unicode="0" glyph-name="zero" d="M1103 675Q1103 337 979 159T611 -20Q368 -20 246 157T124 675Q124 1024 243 1197T617 1370Q866 1370 984 1196T1103 675ZM920 675Q920 965 850 1094T617 1224Q451 1224 379 1096T306 675Q306 390 379 259T613 127Q772
127 846 262T920 675ZM496 555V804H731V555H496Z" />
<glyph unicode="1" glyph-name="one" d="M157 0V145H596V1166Q559 1088 421 1030T148 972V1120Q296 1120 427 1185T611 1349H777V145H1130V0H157Z" />
<glyph unicode="2" glyph-name="two" d="M144 0V117Q193 226 296 336T578 589Q737 716 807 810T877 991Q877 1102 808 1162T611 1222Q497 1222 427 1160T343 984L159 1001Q179 1171 298 1270T611 1370Q824 1370 943 1274T1062 1002Q1062 887 986 773T759 538Q553
374 474 297T361 146H1084V0H144Z" />
<glyph unicode="3" glyph-name="three" d="M1099 370Q1099 184 973 82T621 -20Q407 -20 279 77T128 362L314 379Q350 129 621 129Q757 129 834 192T912 376Q912 451 867 502T743 581T568 609H466V765H564Q650 765 721 793T834 874T875 997Q875 1103 809 1162T611
1222Q492 1222 419 1161T333 989L152 1003Q172 1176 295 1273T613 1370Q825 1370 942 1277T1060 1016Q1060 897 981 809T765 693V689Q916 672 1007 583T1099 370Z" />
<glyph unicode="4" glyph-name="four" d="M937 319V0H757V319H103V459L738 1349H937V461H1125V319H937ZM757 1154L257 461H757V1154Z" />
<glyph unicode="5" glyph-name="five" d="M1099 444Q1099 305 1040 200T868 38T599 -20Q402 -20 281 66T128 315L310 336Q367 127 603 127Q744 127 828 211T912 440Q912 564 829 643T607 722Q534 722 471 699T345 621H169L216 1349H1017V1204H382L353 779Q470
869 644 869Q848 869 973 752T1099 444Z" />
<glyph unicode="6" glyph-name="six" d="M1096 446Q1096 234 975 107T641 -20Q405 -20 278 152T151 642Q151 990 283 1180T655 1370Q974 1370 1057 1083L885 1052Q832 1224 653 1224Q500 1224 415 1085T330 695Q379 786 468 833T672 881Q864 881 980 763T1096
446ZM913 438Q913 582 837 662T629 742Q555 742 489 709T386 616T348 481Q348 329 428 227T635 125Q762 125 837 209T913 438Z" />
<glyph unicode="7" glyph-name="seven" d="M1069 1210Q596 530 596 0H408Q408 263 530 567T895 1204H158V1349H1069V1210Z" />
<glyph unicode="8" glyph-name="eight" d="M1094 378Q1094 194 970 87T614 -20Q388 -20 261 85T133 376Q133 505 212 595T414 707V711Q302 738 234 825T166 1024Q166 1122 221 1202T378 1326T610 1370Q747 1370 849 1326T1005 1202T1059 1022Q1059 909 990 822T809
713V709Q939 688 1016 600T1094 378ZM872 1012Q872 1123 805 1179T610 1236Q487 1236 419 1179T350 1012Q350 901 419 840T612 779Q872 779 872 1012ZM907 395Q907 515 829 579T610 644Q474 644 397 575T319 391Q319 256 394 186T616 115Q763 115 835 184T907 395Z"
/>
<glyph unicode="9" glyph-name="nine" d="M1087 703Q1087 357 954 169T577 -20Q412 -20 313 49T170 274L342 301Q396 125 580 125Q734 125 820 264T909 650Q869 560 772 506T559 451Q370 451 256 578T141 911Q141 1123 266 1246T610 1370Q1087 1370 1087 703ZM891
862Q891 1023 811 1123T604 1224Q474 1224 399 1137T324 911Q324 768 399 681T602 593Q678 593 745 627T852 723T891 862Z" />
<glyph unicode=":" glyph-name="colon" d="M496 0V299H731V0H496ZM496 783V1082H731V783H496Z" />
<glyph unicode=";" glyph-name="semicolon" d="M496 783V1082H731V783H496ZM352 -363L521 299H786L475 -363H352Z" />
<glyph unicode="&lt;" glyph-name="less" d="M116 571V776L1111 1194V1040L253 674L1111 307V154L116 571Z" />
<glyph unicode="=" glyph-name="equal" d="M116 856V1004H1111V856H116ZM116 344V492H1111V344H116Z" />
<glyph unicode="&gt;" glyph-name="greater" d="M116 154V307L974 674L116 1040V1194L1111 776V571L116 154Z" />
<glyph unicode="?" glyph-name="question" d="M1073 1002Q1073 929 1051 872T988 767T854 652Q744 572 709 535T653 455T631 357H456Q458 427 480 482T542 584T677 702Q784 780 817 817T871 896T891 994Q891 1103 812 1161T596 1220Q461 1220 377 1147T278 948L94
960Q120 1157 253 1263T594 1370Q817 1370 945 1274T1073 1002ZM448 0V201H643V0H448Z" />
<glyph unicode="@" glyph-name="at" d="M1189 755Q1189 457 1107 281T884 104Q741 104 741 261V269L743 299H737Q703 211 642 158T502 104Q396 104 337 204T277 489Q277 650 325 793T457 1018T644 1101Q715 1101 760 1060T828 928H833L865 1079H981L882 572Q842
362 842 294Q842 206 891 206Q969 206 1018 355T1068 753Q1068 1027 959 1197T670 1368Q522 1368 408 1261T232 958T170 514Q170 205 286 20T604 -165Q698 -165 785 -130T973 -7L1044 -94Q929 -193 821 -238T594 -283Q429 -283 304 -186T111 93T44 514Q44 800 121
1021T341 1363T672 1484Q830 1484 946 1394T1126 1138T1189 755ZM775 784Q775 890 740 944T646 999Q583 999 530 933T445 745T412 491Q412 210 526 210Q600 210 659 305T746 557T775 784Z" />
<glyph unicode="A" glyph-name="A" d="M1034 0L896 382H333L196 0H0L510 1349H727L1228 0H1034ZM616 1205L604 1166L535 954L384 531H847L674 1031L616 1205Z" />
<glyph unicode="B" glyph-name="B" d="M1152 380Q1152 200 1015 100T634 0H162V1349H574Q1070 1349 1070 1022Q1070 900 998 818T802 711Q969 693 1060 604T1152 380ZM878 998Q878 1105 803 1150T576 1196H353V780H578Q878 780 878 998ZM959 397Q959 511 870 571T605
631H353V153H619Q794 153 876 213T959 397Z" />
<glyph unicode="C" glyph-name="C" d="M314 681Q314 408 399 272T661 135Q762 135 844 203T983 417L1142 352Q993 -20 659 -20Q396 -20 255 161T113 681Q113 1370 649 1370Q988 1370 1115 1035L947 970Q910 1083 832 1148T650 1214Q479 1214 397 1085T314 681Z" />
<glyph unicode="D" glyph-name="D" d="M1125 688Q1125 357 972 179T532 0H162V1349H473Q802 1349 963 1185T1125 688ZM933 688Q933 952 823 1072T474 1193H353V156H515Q727 156 830 289T933 688Z" />
<glyph unicode="E" glyph-name="E" d="M162 0V1349H1081V1193H353V771H1021V617H353V156H1122V0H162Z" />
<glyph unicode="F" glyph-name="F" d="M385 1193V699H1061V541H385V0H194V1349H1085V1193H385Z" />
<glyph unicode="G" glyph-name="G" d="M1101 133Q872 -20 639 -20Q389 -20 251 165T113 681Q113 1028 245 1199T642 1370Q988 1370 1103 1039L932 983Q852 1214 644 1214Q475 1214 395 1088T314 681Q314 135 655 135Q723 135 796 156T915 209V545H622V705H1101V133Z" />
<glyph unicode="H" glyph-name="H" d="M875 0V623H353V0H162V1349H353V783H875V1349H1066V0H875Z" />
<glyph unicode="I" glyph-name="I" d="M202 1349H1025V1193H709V156H1025V0H202V156H518V1193H202V1349Z" />
<glyph unicode="J" glyph-name="J" d="M986 420Q986 211 881 96T586 -20Q415 -20 313 69T176 350L363 381Q381 263 439 199T587 135Q796 135 796 416V1193H485V1349H986V420Z" />
<glyph unicode="K" glyph-name="K" d="M1003 0L516 638L353 469V0H162V1349H353V676L925 1349H1150L646 777L1227 0H1003Z" />
<glyph unicode="L" glyph-name="L" d="M237 0V1349H428V156H1100V0H237Z" />
<glyph unicode="M" glyph-name="M" d="M937 0V868Q937 1003 940 1069L943 1169Q879 963 848 878L684 440H547L381 878Q363 924 285 1169L289 868V0H129V1349H366L551 860Q572 807 619 629L645 719L689 859L874 1349H1099V0H937Z" />
<glyph unicode="N" glyph-name="N" d="M836 0L316 1130Q332 958 332 876V0H162V1349H384L912 211Q894 355 894 485V1349H1066V0H836Z" />
<glyph unicode="O" glyph-name="O" d="M1126 681Q1126 344 994 162T613 -20Q364 -20 233 159T102 681Q102 1018 232 1194T615 1370Q862 1370 994 1197T1126 681ZM925 681Q925 1214 615 1214Q303 1214 303 681Q303 411 382 273T614 135Q777 135 851 275T925 681Z" />
<glyph unicode="P" glyph-name="P" d="M1119 945Q1119 820 1060 722T890 569T634 514H353V0H162V1349H622Q860 1349 989 1243T1119 945ZM927 942Q927 1196 599 1196H353V665H607Q756 665 841 738T927 942Z" />
<glyph unicode="Q" glyph-name="Q" d="M1126 681Q1126 391 1028 216T746 -4Q787 -130 854 -187T1022 -244Q1077 -244 1137 -231V-365Q1044 -387 959 -387Q809 -387 712 -303T551 -16Q332 6 217 183T102 681Q102 1018 232 1194T615 1370Q862 1370 994 1197T1126
681ZM925 681Q925 1214 615 1214Q303 1214 303 681Q303 411 382 273T614 135Q777 135 851 275T925 681Z" />
<glyph unicode="R" glyph-name="R" d="M957 0L591 575H353V0H162V1349H644Q877 1349 999 1253T1121 976Q1121 827 1028 725T777 597L1177 0H957ZM929 973Q929 1196 625 1196H353V726H633Q776 726 852 790T929 973Z" />
<glyph unicode="S" glyph-name="S" d="M1128 370Q1128 186 994 83T610 -20Q153 -20 79 338L264 375Q292 246 380 188T615 129Q774 129 856 191T939 367Q939 437 907 481T821 553T702 598T567 633Q406 675 338 708T228 783T166 881T145 1010Q145 1183 266 1276T615
1370Q827 1370 939 1296T1095 1046L907 1013Q883 1125 811 1175T614 1226Q331 1226 331 1013Q331 953 357 916T429 854T535 813T665 779Q804 744 865 721T973 667T1055 596T1108 500T1128 370Z" />
<glyph unicode="T" glyph-name="T" d="M709 1193V0H519V1193H76V1349H1152V1193H709Z" />
<glyph unicode="U" glyph-name="U" d="M1085 490Q1085 223 971 102T605 -20Q361 -20 252 97T142 472V1349H333V498Q333 294 391 215T604 135Q765 135 830 217T895 511V1349H1085V490Z" />
<glyph unicode="V" glyph-name="V" d="M713 0H515L10 1349H211L531 447Q562 361 615 168Q655 317 699 447L1017 1349H1218L713 0Z" />
<glyph unicode="W" glyph-name="W" d="M1018 0H810Q736 276 698 420T616 756Q587 631 563 530T419 0H211L0 1349H189L298 514Q314 383 331 168Q363 306 384 396T528 931H703Q772 678 811 533T900 168L935 514L1039 1349H1228L1018 0Z" />
<glyph unicode="X" glyph-name="X" d="M614 836L947 1349H1152L717 705L1193 0H988L614 573L241 0H36L512 705L77 1349H282L614 836Z" />
<glyph unicode="Y" glyph-name="Y" d="M708 584V0H520V584L36 1349H241L615 738L987 1349H1192L708 584Z" />
<glyph unicode="Z" glyph-name="Z" d="M1155 0H73V143L891 1193H146V1349H1108V1210L290 156H1155V0Z" />
<glyph unicode="[" glyph-name="bracketleft" d="M410 -425V1484H957V1345H590V-286H957V-425H410Z" />
<glyph unicode="\" glyph-name="backslash" d="M932 -20L115 1484H293L1114 -20H932Z" />
<glyph unicode="]" glyph-name="bracketright" d="M270 -425V-286H637V1345H270V1484H817V-425H270Z" />
<glyph unicode="^" glyph-name="asciicircum" d="M940 442L611 1245L285 442H133L511 1349H714L1094 442H940Z" />
<glyph unicode="_" glyph-name="underscore" d="M-5 -220V-124H1233V-220H-5Z" />
<glyph unicode="`" glyph-name="grave" d="M702 1201L402 1431V1460H599L826 1221V1201H702Z" />
<glyph unicode="a" glyph-name="a" d="M1101 111Q1127 111 1160 118V6Q1092 -10 1021 -10Q921 -10 876 42T824 207H818Q753 86 665 33T446 -20Q288 -20 208 66T128 302Q128 651 582 656L818 660V719Q818 850 765 907T596 965Q478 965 426 923T364 793L176 810Q222
1102 599 1102Q799 1102 899 1009T1000 738V272Q1000 192 1021 152T1101 111ZM492 117Q588 117 662 163T777 286T818 445V534L628 530Q510 528 448 504T352 431T317 299Q317 217 361 167T492 117Z" />
<glyph unicode="b" glyph-name="b" d="M1090 546Q1090 262 989 121T698 -20Q454 -20 364 164H362Q362 116 359 64T353 0H179Q185 54 185 223V1484H365V1061Q365 996 361 904H365Q456 1104 699 1104Q1090 1104 1090 546ZM904 540Q904 764 843 864T650 965Q501 965
433 856T365 524Q365 315 431 214T648 113Q783 113 843 217T904 540Z" />
<glyph unicode="c" glyph-name="c" d="M130 542Q130 812 259 957T632 1102Q814 1102 932 1015T1078 779L886 765Q870 856 806 908T624 961Q466 961 393 863T319 546Q319 324 392 222T623 119Q731 119 802 172T890 334L1080 322Q1067 226 1008 148T850 25T631 -20Q386
-20 258 124T130 542Z" />
<glyph unicode="d" glyph-name="d" d="M862 174Q813 69 732 22T530 -26Q328 -26 233 113T138 532Q138 1098 530 1098Q651 1098 732 1055T863 914H865L863 1065V1484H1043V223Q1043 54 1049 0H877Q873 15 870 73T867 174H862ZM324 538Q324 316 383 215T577 113Q723
113 793 218T863 554Q863 769 796 867T579 965Q444 965 384 862T324 538Z" />
<glyph unicode="e" glyph-name="e" d="M322 503Q322 321 402 218T623 115Q726 115 803 159T907 281L1065 236Q1021 112 904 46T623 -20Q387 -20 260 127T133 548Q133 815 257 958T617 1102Q852 1102 973 959T1094 527V503H322ZM619 969Q485 969 407 882T324 641H908Q880
969 619 969Z" />
<glyph unicode="f" glyph-name="f" d="M580 940V0H400V940H138V1082H400V1107Q400 1312 496 1398T818 1484Q890 1484 973 1478T1099 1463V1318Q1069 1323 978 1329T839 1335Q735 1335 682 1312T605 1237T580 1092V1082H1071V940H580Z" />
<glyph unicode="g" glyph-name="g" d="M615 -424Q447 -424 345 -355T215 -157L399 -132Q416 -207 472 -247T621 -288Q869 -288 869 27V221H867Q818 118 731 65T524 12Q326 12 235 141T143 549Q143 832 241 965T543 1099Q656 1099 739 1047T868 897H871Q871 927
875 998T883 1082H1054Q1048 1028 1048 858V32Q1048 -195 942 -309T615 -424ZM869 551Q869 744 794 854T588 965Q451 965 390 870T329 551Q329 400 354 313T434 185T585 145Q670 145 734 192T834 331T869 551Z" />
<glyph unicode="h" glyph-name="h" d="M185 1484H366V1094Q366 1035 357 897H360Q465 1102 699 1102Q1049 1102 1049 721V0H868V695Q868 831 816 897T648 963Q524 963 445 873T365 627V0H185V1484Z" />
<glyph unicode="i" glyph-name="i" d="M745 142H1125V0H143V142H565V940H246V1082H745V142ZM545 1292V1484H745V1292H545Z" />
<glyph unicode="j" glyph-name="j" d="M836 -28Q836 -215 724 -320T405 -425Q326 -425 244 -412T117 -382V-242Q267 -276 390 -276Q518 -276 587 -210T656 -25V940H249V1082H836V-28ZM636 1292V1484H836V1292H636Z" />
<glyph unicode="k" glyph-name="k" d="M914 0L548 499L416 401V0H236V1484H416V557L891 1082H1102L663 617L1125 0H914Z" />
<glyph unicode="l" glyph-name="l" d="M736 142H1116V0H134V142H556V1342H267V1484H736V142Z" />
<glyph unicode="m" glyph-name="m" d="M531 0V686Q531 840 507 901T417 963Q353 963 314 867T274 607V0H105V851Q105 1040 99 1082H248L254 955V907H256Q290 1009 342 1055T472 1102Q560 1102 603 1054T666 906H668Q708 1012 763 1057T904 1102Q1022 1102 1073
1016T1124 721V0H956V686Q956 840 932 901T842 963Q776 963 738 879T699 627V0H531Z" />
<glyph unicode="n" glyph-name="n" d="M868 0V695Q868 831 816 897T648 963Q524 963 445 873T365 627V0H185V851Q185 1040 179 1082H349Q350 1077 351 1055T353 1005T357 897H360Q465 1102 706 1102Q879 1102 964 1009T1049 721V0H868Z" />
<glyph unicode="o" glyph-name="o" d="M1097 542Q1097 269 972 125T609 -20Q377 -20 254 126T130 542Q130 821 256 961T615 1102Q859 1102 978 963T1097 542ZM908 542Q908 757 840 863T618 969Q463 969 391 861T319 542Q319 332 391 223T607 113Q766 113 837 220T908
542Z" />
<glyph unicode="p" glyph-name="p" d="M1090 546Q1090 -20 698 -20Q452 -20 367 164H362Q366 156 366 -2V-425H185V858Q185 1028 179 1082H354Q355 1078 357 1053T361 978T364 904H368Q418 1009 495 1056T698 1104Q896 1104 993 968T1090 546ZM904 546Q904 772
843 868T651 965Q500 965 433 856T366 524Q366 311 433 212T649 113Q782 113 843 214T904 546Z" />
<glyph unicode="q" glyph-name="q" d="M529 1098Q658 1098 735 1054T861 914H863Q863 944 866 1007T875 1083H1050Q1044 1029 1044 801V-425H863V14L867 182H865Q812 75 733 25T530 -26Q328 -26 233 114T138 532Q138 1098 529 1098ZM863 554Q863 766 795 865T579
965Q445 965 385 863T324 538Q324 317 385 215T577 113Q724 113 793 222T863 554Z" />
<glyph unicode="r" glyph-name="r" d="M1045 918Q933 937 833 937Q672 937 573 816T474 508V0H294V701Q294 777 281 880T242 1082H413Q453 944 461 832H466Q516 944 564 996T678 1075T839 1102Q943 1102 1045 1085V918Z" />
<glyph unicode="s" glyph-name="s" d="M1060 309Q1060 155 944 68T621 -20Q415 -20 308 44T167 248L326 279Q345 193 407 154T621 114Q891 114 891 285Q891 349 842 388T692 453Q428 518 357 555T248 647T210 786Q210 933 316 1016T623 1099Q799 1099 904 1033T1035
839L873 819Q862 891 802 928T623 965Q378 965 378 814Q378 754 419 718T553 660L672 629Q835 589 906 550T1019 453T1060 309Z" />
<glyph unicode="t" glyph-name="t" d="M190 940V1082H360L418 1364H538V1082H970V940H538V288Q538 209 580 171T720 133Q854 133 1017 167V30Q848 -16 682 -16Q520 -16 439 52T358 269V940H190Z" />
<glyph unicode="u" glyph-name="u" d="M365 1082V396Q365 240 414 180T589 119Q718 119 793 207T868 455V1082H1049V231Q1049 42 1055 0H885Q884 5 883 27T881 77T877 185H874Q812 73 731 27T528 -20Q350 -20 268 68T185 361V1082H365Z" />
<glyph unicode="v" glyph-name="v" d="M715 0H502L69 1082H271L539 378L556 325L608 141L643 258L682 376L958 1082H1159L715 0Z" />
<glyph unicode="w" glyph-name="w" d="M1018 0H814L671 471L614 673L575 534L407 0H204L21 1082H199L292 475Q325 211 325 149Q364 309 383 363L518 787H711L841 362Q873 257 896 149Q896 179 900 224T910 316T922 407T931 475L1032 1082H1208L1018 0Z" />
<glyph unicode="x" glyph-name="x" d="M932 0L611 444L288 0H94L509 556L112 1082H311L611 661L909 1082H1110L713 558L1133 0H932Z" />
<glyph unicode="y" glyph-name="y" d="M292 -425Q218 -425 168 -414V-279Q206 -285 252 -285Q331 -285 400 -226T518 -38L536 11L66 1082H258L522 440Q613 216 620 186L661 296L971 1082H1161L705 0Q616 -235 521 -330T292 -425Z" />
<glyph unicode="z" glyph-name="z" d="M147 0V137L828 943H187V1082H1031V945L349 139H1068V0H147Z" />
<glyph unicode="{" glyph-name="braceleft" d="M796 -425Q666 -425 584 -341T502 -122V229Q502 336 429 396T227 461V598Q357 603 429 664T502 829V1181Q502 1318 583 1401T796 1484H1061V1345H848Q757 1345 717 1301T677 1150V804Q677 706 613 632T446 532V530Q548
506 612 433T677 256V-91Q677 -197 717 -241T848 -286H1061V-425H796Z" />
<glyph unicode="|" glyph-name="bar" d="M531 -425V1484H697V-425H531Z" />
<glyph unicode="}" glyph-name="braceright" d="M167 -425V-286H380Q471 -286 511 -242T552 -91V256Q552 358 616 432T782 530V532Q680 557 616 632T552 804V1150Q552 1255 512 1300T380 1345H167V1484H432Q565 1484 645 1401T726 1181V829Q726 724 799 664T1001
598V461Q871 456 799 396T726 229V-122Q726 -257 644 -341T432 -425H167Z" />
<glyph unicode="~" glyph-name="asciitilde" d="M371 807Q473 807 606 761Q753 710 796 700T876 690Q1006 690 1120 782V633Q1060 591 1003 572T860 553Q791 553 719 575T573 623Q444 668 356 668Q289 668 231 648T108 580V723Q219 807 371 807Z" />
<glyph unicode="&#xa0;" glyph-name="space" />
<glyph unicode="&#xa1;" glyph-name="exclamdown" d="M539 685H687L711 -266H515L539 685ZM713 1082V881H519V1082H713Z" />
<glyph unicode="&#xa2;" glyph-name="cent" d="M635 269Q748 269 821 325T912 486L1094 474Q1073 332 966 240T698 134V-61H570V134Q362 149 248 286T133 656Q133 896 249 1036T570 1195V1379H698V1195Q855 1182 957 1098T1088 873L903 859Q886 950 821 1004T633
1058Q477 1058 397 958T316 668Q316 470 400 370T635 269Z" />
<glyph unicode="&#xa3;" glyph-name="sterling" d="M1171 240Q1121 0 937 0H56V154Q143 198 178 237T232 332T251 471V612H65V754H251V974Q251 1168 359 1269T673 1370Q826 1370 928 1310T1064 1140L890 1083Q868 1146 810 1178T673 1210Q551 1210 491 1153T431
970V754H839V612H431V473Q431 345 395 274T276 158H876Q935 158 963 184T1003 264L1171 240Z" />
<glyph unicode="&#xa4;" glyph-name="currency" d="M182 684Q182 822 260 936L160 1036L264 1139L363 1038Q477 1120 617 1120Q754 1120 868 1040L965 1137L1069 1032L973 936Q1053 819 1053 684Q1053 546 971 432L1071 332L969 227L868 328Q754 250 617 250Q474
250 365 330L260 225L158 330L260 432Q182 546 182 684ZM336 686Q336 572 418 489T617 406Q731 406 814 487T897 686Q897 802 815 884T617 967Q500 967 418 884T336 686Z" />
<glyph unicode="&#xa5;" glyph-name="yen" d="M764 679H1085V537H702V400H1085V256H702V0H524V256H143V400H524L526 537H143V679H463L52 1349H251L612 732L977 1349H1176L764 679Z" />
<glyph unicode="&#xa6;" glyph-name="brokenbar" d="M531 676V1454H697V676H531ZM531 -455V324H697V-455H531Z" />
<glyph unicode="&#xa7;" glyph-name="section" d="M632 1484Q805 1484 911 1418T1045 1224L884 1204Q870 1283 806 1323T632 1364Q507 1364 443 1320T378 1204Q378 1156 408 1121T493 1060T679 1003Q826 968 904 927T1025 826T1068 686Q1068 587 1009 512T849
413Q961 365 1011 301T1062 145Q1062 -3 947 -87T621 -172Q412 -172 303 -106T159 100L320 131Q340 38 411 -7T621 -52Q752 -52 827 -4T902 129Q902 185 870 224T780 291T562 358Q367 403 282 481T197 671Q197 760 258 834T425 938Q329 970 274 1037T218 1190Q218
1329 323 1406T632 1484ZM910 663Q910 735 841 787T595 880Q486 874 422 821T357 684Q357 635 386 599T471 535T656 475Q775 477 842 527T910 663Z" />
<glyph unicode="&#xa8;" glyph-name="dieresis" d="M729 1219V1403H892V1219H729ZM335 1219V1403H500V1219H335Z" />
<glyph unicode="&#xa9;" glyph-name="copyright" d="M398 763Q398 610 457 524T622 437Q687 437 735 474T818 593L933 558Q881 440 805 387T622 333Q454 333 362 446T269 763Q269 965 358 1076T615 1187Q832 1187 918 978L804 945Q778 1012 730 1047T617 1082Q510
1082 454 1002T398 763ZM1197 761Q1197 534 1126 371T923 123T614 38Q437 38 306 123T103 372T31 761Q31 987 102 1150T305 1398T614 1484Q790 1484 922 1399T1126 1152T1197 761ZM1105 761Q1105 1062 975 1225T614 1389Q463 1389 354 1317T185 1103T126 761Q126
462 253 297T614 132Q847 132 976 296T1105 761Z" />
<glyph unicode="&#xaa;" glyph-name="ordfeminine" d="M206 870Q206 987 296 1048T564 1112L755 1116V1159Q755 1341 575 1341Q491 1341 445 1307T388 1196L239 1206Q257 1312 345 1372T579 1432Q732 1432 815 1365T898 1165V874Q898 816 913 786T972 756Q997
756 1021 764V670Q971 657 919 657Q765 657 759 817H755Q712 740 639 696T464 651Q343 651 275 708T206 870ZM353 890Q353 826 394 789T505 752Q574 752 631 786T722 874T755 983V1034L601 1030Q471 1027 412 994T353 890Z" />
<glyph unicode="&#xab;" glyph-name="guillemotleft" d="M940 141L602 506V569L940 940H1118V909L780 537L1120 170V141H940ZM463 141L127 506V569L463 940H640V909L305 537L642 170V141H463Z" />
<glyph unicode="&#xac;" glyph-name="logicalnot" d="M966 180V608H116V754H1111V180H966Z" />
<glyph unicode="&#xad;" glyph-name="hyphen" d="M334 464V624H894V464H334Z" />
<glyph unicode="&#xae;" glyph-name="registered" d="M1197 761Q1197 534 1126 371T923 123T614 38Q437 38 306 123T103 372T31 761Q31 987 102 1150T305 1398T614 1484Q790 1484 922 1399T1126 1152T1197 761ZM1105 761Q1105 1062 975 1225T614 1389Q463 1389
354 1317T185 1103T126 761Q126 462 253 297T614 132Q847 132 976 296T1105 761ZM815 343L616 679H455V343H328V1174H635Q777 1174 852 1111T928 937Q928 835 876 774T739 693L960 343H815ZM801 935Q801 1004 754 1040T625 1076H455V775H637Q717 775 759 817T801
935Z" />
<glyph unicode="&#xaf;" glyph-name="overscore" d="M-5 1522V1618H1233V1522H-5Z" />
<glyph unicode="&#xb0;" glyph-name="degree" d="M901 1085Q901 966 817 883T614 800Q496 800 412 884T327 1085Q327 1202 410 1286T614 1370Q734 1370 817 1287T901 1085ZM792 1085Q792 1161 741 1213T614 1265Q539 1265 488 1212T436 1085Q436 1011 488 958T614
905Q688 905 740 957T792 1085Z" />
<glyph unicode="&#xb1;" glyph-name="plusminus" d="M687 680V285H540V680H116V825H540V1219H687V825H1111V680H687ZM116 0V145H1111V0H116Z" />
<glyph unicode="&#xb2;" glyph-name="twosuperior" d="M314 563L312 666Q343 735 407 799T579 938Q676 1004 720 1061T764 1178Q764 1240 729 1277T619 1315Q551 1315 507 1279T455 1174L322 1182Q335 1290 417 1355T625 1421Q756 1421 828 1358T901 1182Q901
1107 854 1040T711 905Q579 812 529 766T455 670H914L916 563H314Z" />
<glyph unicode="&#xb3;" glyph-name="threesuperior" d="M921 795Q921 679 844 615T624 551Q338 551 306 778L442 791Q460 655 624 655Q784 655 784 803Q784 940 595 940H534V1049H591Q671 1049 717 1085T763 1186Q763 1246 726 1280T618 1315Q550 1315 508 1280T460
1180L325 1192Q338 1301 416 1361T622 1421Q752 1421 826 1362T900 1204Q900 1129 857 1074T724 999V997Q815 988 868 936T921 795Z" />
<glyph unicode="&#xb4;" glyph-name="acute" d="M402 1201V1221L629 1460H826V1431L526 1201H402Z" />
<glyph unicode="&#xb5;" glyph-name="mu1" d="M916 0Q914 11 910 92T906 199H902Q796 -20 568 -20Q486 -20 422 12T326 102H322Q326 59 326 -20V-393H144V1082H326V438Q326 121 590 121Q721 121 809 217T897 465V1082H1078V233Q1078 42 1084 0H916Z" />
<glyph unicode="&#xb6;" glyph-name="paragraph" d="M951 1227V-324H819V1227H622V-324H489V634Q321 634 224 726T127 989Q127 1158 225 1253T497 1349H1080V1227H951Z" />
<glyph unicode="&#xb7;" glyph-name="middot.001" d="M496 420V719H731V420H496Z" />
<glyph unicode="&#xb8;" glyph-name="cedilla" d="M483 -258Q483 -444 209 -444Q152 -444 119 -440V-342Q169 -348 205 -348Q352 -348 352 -262Q352 -222 322 -201T219 -180Q176 -180 162 -182L227 0H334L295 -100Q389 -103 436 -144T483 -258Z" />
<glyph unicode="&#xb9;" glyph-name="onesuperior" d="M291 563V670H556V1280Q531 1230 452 1198T285 1165V1274Q384 1274 458 1310T566 1410H687V670H923V563H291Z" />
<glyph unicode="&#xba;" glyph-name="ordmasculine" d="M1002 1042Q1002 859 900 755T611 651Q429 651 328 758T226 1042Q226 1224 329 1328T615 1432Q804 1432 903 1332T1002 1042ZM853 1042Q853 1193 793 1260T619 1327Q378 1327 378 1042Q378 902 437 829T609
756Q726 756 789 822T853 1042Z" />
<glyph unicode="&#xbb;" glyph-name="guillemotright" d="M762 141H584V170L922 537L586 909V940H762L1100 569V506L762 141ZM287 141H107V170L445 537L109 909V940H287L622 569V506L287 141Z" />
<glyph unicode="&#xbc;" glyph-name="onequarter" d="M63 589V696H198V1209Q178 1170 125 1142T27 1114V1233Q77 1233 129 1264T208 1349H329V696H445V589H63ZM322 0H204L907 1349H1022L322 0ZM1107 162V1H980V162H605V261L966 763H1107V263H1229V162H1107ZM981
635Q947 584 715 263H980V584L981 635Z" />
<glyph unicode="&#xbd;" glyph-name="onehalf" d="M53 589V696H188V1209Q168 1170 115 1142T17 1114V1233Q67 1233 119 1264T198 1349H319V696H435V589H53ZM562 0H444L1147 1349H1262L562 0ZM678 1V98Q705 160 758 217T902 342Q984 403 1019 451T1054 552Q1054
673 943 673Q882 673 853 642T815 550L685 555Q698 657 767 715T948 773Q1068 773 1128 717T1189 558Q1189 427 1029 307Q912 218 875 183T820 108H1200V1H678Z" />
<glyph unicode="&#xbe;" glyph-name="threequarters" d="M526 794Q526 693 457 632T269 571Q162 571 94 627T11 783L147 796Q156 736 188 706T269 675Q323 675 356 705T389 800Q389 920 240 920H199V1029H236Q304 1029 336 1057T368 1152Q368 1205 341 1230T273
1255Q228 1255 195 1224T156 1135L21 1147Q34 1247 101 1304T273 1361Q382 1361 443 1306T505 1159Q505 1093 472 1051T369 982V980Q451 962 488 912T526 794ZM347 0H229L932 1349H1047L347 0ZM1107 162V1H980V162H605V261L966 763H1107V263H1229V162H1107ZM981
635Q947 584 715 263H980V584L981 635Z" />
<glyph unicode="&#xbf;" glyph-name="questiondown" d="M153 79Q153 152 175 209T238 314T372 430Q482 509 517 546T573 626T595 724H770Q768 654 746 599T684 497T549 380Q442 301 409 264T355 185T335 87Q335 -22 414 -80T630 -139Q765 -139 849 -66T948 133L1132
121Q1106 -76 973 -182T632 -289Q409 -289 281 -193T153 79ZM778 1081V880H583V1081H778Z" />
<glyph unicode="&#xc0;" glyph-name="Agrave" d="M1034 0L896 382H333L196 0H0L510 1349H727L1228 0H1034ZM616 1205L604 1166L535 954L384 531H847L674 1031L616 1205ZM609 1444L309 1674V1703H506L733 1464V1444H609Z" />
<glyph unicode="&#xc1;" glyph-name="Aacute" d="M1034 0L896 382H333L196 0H0L510 1349H727L1228 0H1034ZM616 1205L604 1166L535 954L384 531H847L674 1031L616 1205ZM495 1445V1465L722 1704H919V1675L619 1445H495Z" />
<glyph unicode="&#xc2;" glyph-name="Acircumflex" d="M1034 0L896 382H333L196 0H0L510 1349H727L1228 0H1034ZM616 1205L604 1166L535 954L384 531H847L674 1031L616 1205ZM945 1465V1445H840L621 1583H619L387 1445H283V1465L537 1704H701L945 1465Z" />
<glyph unicode="&#xc3;" glyph-name="Atilde" d="M1034 0L896 382H333L196 0H0L510 1349H727L1228 0H1034ZM616 1205L604 1166L535 954L384 531H847L674 1031L616 1205ZM770 1445Q728 1445 686 1463T604 1504T526 1545T452 1564Q427 1564 412 1555T387 1527T366
1445H255Q266 1541 289 1590T354 1666T458 1693Q502 1693 544 1675T626 1634T703 1593T773 1574Q810 1574 830 1597T860 1693H972Q956 1555 907 1500T770 1445Z" />
<glyph unicode="&#xc4;" glyph-name="Adieresis" d="M1034 0L896 382H333L196 0H0L510 1349H727L1228 0H1034ZM616 1205L604 1166L535 954L384 531H847L674 1031L616 1205ZM729 1445V1629H892V1445H729ZM335 1445V1629H500V1445H335Z" />
<glyph unicode="&#xc5;" glyph-name="Aring" d="M1034 0L896 382H333L196 0H0L510 1349H727L1228 0H1034ZM616 1205L604 1166L535 954L384 531H847L674 1031L616 1205ZM859 1433Q859 1346 794 1290T617 1233Q505 1233 440 1289T375 1433Q375 1522 441 1577T617
1632Q728 1632 793 1577T859 1433ZM738 1433Q738 1470 706 1493T617 1516Q562 1516 529 1493T495 1433Q495 1395 528 1372T617 1349Q673 1349 705 1372T738 1433Z" />
<glyph unicode="&#xc6;" glyph-name="AE" d="M646 412H311L169 0H1L487 1349H1154V1197H817V767H1144V617H817V152H1195V0H646V412ZM646 1202H573Q569 1186 531 1056T362 561H646V1202Z" />
<glyph unicode="&#xc7;" glyph-name="Ccedilla" d="M314 681Q314 408 399 272T661 135Q762 135 844 203T983 417L1142 352Q993 -20 659 -20Q396 -20 255 161T113 681Q113 1370 649 1370Q988 1370 1115 1035L947 970Q910 1083 832 1148T650 1214Q479 1214 397 1085T314
681ZM837 -258Q837 -444 563 -444Q506 -444 473 -440V-342Q523 -348 559 -348Q706 -348 706 -262Q706 -222 676 -201T573 -180Q530 -180 516 -182L581 0H688L649 -100Q743 -103 790 -144T837 -258Z" />
<glyph unicode="&#xc8;" glyph-name="Egrave" d="M162 0V1349H1081V1193H353V771H1021V617H353V156H1122V0H162ZM631 1445L331 1675V1704H528L755 1465V1445H631Z" />
<glyph unicode="&#xc9;" glyph-name="Eacute" d="M162 0V1349H1081V1193H353V771H1021V617H353V156H1122V0H162ZM493 1445V1465L720 1704H917V1675L617 1445H493Z" />
<glyph unicode="&#xca;" glyph-name="Ecircumflex" d="M162 0V1349H1081V1193H353V771H1021V617H353V156H1122V0H162ZM945 1465V1445H840L621 1583H619L387 1445H283V1465L537 1704H701L945 1465Z" />
<glyph unicode="&#xcb;" glyph-name="Edieresis" d="M162 0V1349H1081V1193H353V771H1021V617H353V156H1122V0H162ZM749 1445V1629H912V1445H749ZM355 1445V1629H520V1445H355Z" />
<glyph unicode="&#xcc;" glyph-name="Igrave" d="M202 1349H1025V1193H709V156H1025V0H202V156H518V1193H202V1349ZM621 1445L321 1675V1704H518L745 1465V1445H621Z" />
<glyph unicode="&#xcd;" glyph-name="Iacute" d="M202 1349H1025V1193H709V156H1025V0H202V156H518V1193H202V1349ZM505 1445V1465L732 1704H929V1675L629 1445H505Z" />
<glyph unicode="&#xce;" glyph-name="Icircumflex" d="M202 1349H1025V1193H709V156H1025V0H202V156H518V1193H202V1349ZM945 1465V1445H840L621 1583H619L387 1445H283V1465L537 1704H701L945 1465Z" />
<glyph unicode="&#xcf;" glyph-name="Idieresis" d="M202 1349H1025V1193H709V156H1025V0H202V156H518V1193H202V1349ZM729 1445V1629H892V1445H729ZM335 1445V1629H500V1445H335Z" />
<glyph unicode="&#xd0;" glyph-name="Eth" d="M1125 688Q1125 357 972 179T532 0H162V597H27V746H162V1349H473Q802 1349 963 1185T1125 688ZM642 597H353V156H515Q727 156 830 289T933 688Q933 952 823 1072T474 1193H353V746H642V597Z" />
<glyph unicode="&#xd1;" glyph-name="Ntilde" d="M836 0L316 1130Q332 958 332 876V0H162V1349H384L912 211Q894 355 894 485V1349H1066V0H836ZM770 1446Q728 1446 686 1464T604 1505T526 1546T452 1565Q427 1565 412 1556T387 1528T366 1446H255Q266 1542 289
1591T354 1667T458 1694Q502 1694 544 1676T626 1635T703 1594T773 1575Q810 1575 830 1598T860 1694H972Q956 1556 907 1501T770 1446Z" />
<glyph unicode="&#xd2;" glyph-name="Ograve" d="M1126 681Q1126 344 994 162T613 -20Q364 -20 233 159T102 681Q102 1018 232 1194T615 1370Q862 1370 994 1197T1126 681ZM925 681Q925 1214 615 1214Q303 1214 303 681Q303 411 382 273T614 135Q777 135 851 275T925
681ZM616 1445L316 1675V1704H513L740 1465V1445H616Z" />
<glyph unicode="&#xd3;" glyph-name="Oacute" d="M1126 681Q1126 344 994 162T613 -20Q364 -20 233 159T102 681Q102 1018 232 1194T615 1370Q862 1370 994 1197T1126 681ZM925 681Q925 1214 615 1214Q303 1214 303 681Q303 411 382 273T614 135Q777 135 851 275T925
681ZM500 1445V1465L727 1704H924V1675L624 1445H500Z" />
<glyph unicode="&#xd4;" glyph-name="Ocircumflex" d="M1126 681Q1126 344 994 162T613 -20Q364 -20 233 159T102 681Q102 1018 232 1194T615 1370Q862 1370 994 1197T1126 681ZM925 681Q925 1214 615 1214Q303 1214 303 681Q303 411 382 273T614 135Q777 135
851 275T925 681ZM945 1465V1445H840L621 1583H619L387 1445H283V1465L537 1704H701L945 1465Z" />
<glyph unicode="&#xd5;" glyph-name="Otilde" d="M1126 681Q1126 344 994 162T613 -20Q364 -20 233 159T102 681Q102 1018 232 1194T615 1370Q862 1370 994 1197T1126 681ZM925 681Q925 1214 615 1214Q303 1214 303 681Q303 411 382 273T614 135Q777 135 851 275T925
681ZM770 1445Q728 1445 686 1463T604 1504T526 1545T452 1564Q427 1564 412 1555T387 1527T366 1445H255Q266 1541 289 1590T354 1666T458 1693Q502 1693 544 1675T626 1634T703 1593T773 1574Q810 1574 830 1597T860 1693H972Q956 1555 907 1500T770 1445Z" />
<glyph unicode="&#xd6;" glyph-name="Odieresis" d="M1126 681Q1126 344 994 162T613 -20Q364 -20 233 159T102 681Q102 1018 232 1194T615 1370Q862 1370 994 1197T1126 681ZM925 681Q925 1214 615 1214Q303 1214 303 681Q303 411 382 273T614 135Q777 135 851
275T925 681ZM732 1445V1629H895V1445H732ZM338 1445V1629H503V1445H338Z" />
<glyph unicode="&#xd7;" glyph-name="multiply" d="M157 330L511 684L159 1036L263 1139L613 786L963 1137L1068 1032L718 684L1070 332L968 227L615 580L259 225L157 330Z" />
<glyph unicode="&#xd8;" glyph-name="Oslash" d="M1126 681Q1126 344 994 162T613 -20Q395 -20 267 118L150 -38L56 27L197 216Q102 390 102 681Q102 1018 232 1194T615 1370Q832 1370 960 1236L1076 1392L1170 1327L1030 1140Q1126 970 1126 681ZM925 681Q925
845 895 959L383 273Q462 135 614 135Q777 135 851 275T925 681ZM303 681Q303 515 333 399L845 1083Q768 1214 615 1214Q303 1214 303 681Z" />
<glyph unicode="&#xd9;" glyph-name="Ugrave" d="M1085 490Q1085 223 971 102T605 -20Q361 -20 252 97T142 472V1349H333V498Q333 294 391 215T604 135Q765 135 830 217T895 511V1349H1085V490ZM605 1445L305 1675V1704H502L729 1465V1445H605Z" />
<glyph unicode="&#xda;" glyph-name="Uacute" d="M1085 490Q1085 223 971 102T605 -20Q361 -20 252 97T142 472V1349H333V498Q333 294 391 215T604 135Q765 135 830 217T895 511V1349H1085V490ZM488 1445V1465L715 1704H912V1675L612 1445H488Z" />
<glyph unicode="&#xdb;" glyph-name="Ucircumflex" d="M1085 490Q1085 223 971 102T605 -20Q361 -20 252 97T142 472V1349H333V498Q333 294 391 215T604 135Q765 135 830 217T895 511V1349H1085V490ZM945 1465V1445H840L621 1583H619L387 1445H283V1465L537 1704H701L945
1465Z" />
<glyph unicode="&#xdc;" glyph-name="Udieresis" d="M1085 490Q1085 223 971 102T605 -20Q361 -20 252 97T142 472V1349H333V498Q333 294 391 215T604 135Q765 135 830 217T895 511V1349H1085V490ZM729 1445V1629H892V1445H729ZM335 1445V1629H500V1445H335Z" />
<glyph unicode="&#xdd;" glyph-name="Yacute" d="M708 584V0H520V584L36 1349H241L615 738L987 1349H1192L708 584ZM503 1445V1465L730 1704H927V1675L627 1445H503Z" />
<glyph unicode="&#xde;" glyph-name="Thorn" d="M1119 692Q1119 564 1061 465T894 310T634 254H353V0H162V1349H353V1114H622Q861 1114 990 1003T1119 692ZM927 688Q927 822 845 896T599 971H353V395H607Q760 395 843 472T927 688Z" />
<glyph unicode="&#xdf;" glyph-name="germandbls" d="M1167 295Q1167 143 1072 57T809 -29Q638 -29 526 20L524 184Q582 151 659 133T805 115Q897 115 946 162T995 289Q995 356 954 408T813 522Q721 577 676 640T630 785Q630 846 658 896T741 991Q799 1039 825
1081T852 1173Q852 1250 785 1296T609 1343Q461 1343 392 1263T322 1021V0H142V1027Q142 1254 259 1369T609 1484Q799 1484 911 1404T1024 1187Q1024 1049 911 948Q840 885 819 855T798 791Q798 749 831 715T983 600Q1072 540 1119 465T1167 295Z" />
<glyph unicode="&#xe0;" glyph-name="agrave" d="M1101 111Q1127 111 1160 118V6Q1092 -10 1021 -10Q921 -10 876 42T824 207H818Q753 86 665 33T446 -20Q288 -20 208 66T128 302Q128 651 582 656L818 660V719Q818 850 765 907T596 965Q478 965 426 923T364 793L176
810Q222 1102 599 1102Q799 1102 899 1009T1000 738V272Q1000 192 1021 152T1101 111ZM492 117Q588 117 662 163T777 286T818 445V534L628 530Q510 528 448 504T352 431T317 299Q317 217 361 167T492 117ZM844 1201L544 1431V1460H741L968 1221V1201H844Z" />
<glyph unicode="&#xe1;" glyph-name="aacute" d="M1101 111Q1127 111 1160 118V6Q1092 -10 1021 -10Q921 -10 876 42T824 207H818Q753 86 665 33T446 -20Q288 -20 208 66T128 302Q128 651 582 656L818 660V719Q818 850 765 907T596 965Q478 965 426 923T364 793L176
810Q222 1102 599 1102Q799 1102 899 1009T1000 738V272Q1000 192 1021 152T1101 111ZM492 117Q588 117 662 163T777 286T818 445V534L628 530Q510 528 448 504T352 431T317 299Q317 217 361 167T492 117ZM479 1201V1221L706 1460H903V1431L603 1201H479Z" />
<glyph unicode="&#xe2;" glyph-name="acircumflex" d="M1101 111Q1127 111 1160 118V6Q1092 -10 1021 -10Q921 -10 876 42T824 207H818Q753 86 665 33T446 -20Q288 -20 208 66T128 302Q128 651 582 656L818 660V719Q818 850 765 907T596 965Q478 965 426 923T364
793L176 810Q222 1102 599 1102Q799 1102 899 1009T1000 738V272Q1000 192 1021 152T1101 111ZM492 117Q588 117 662 163T777 286T818 445V534L628 530Q510 528 448 504T352 431T317 299Q317 217 361 167T492 117ZM1183 1221V1201H1078L859 1339H857L625 1201H521V1221L775
1460H939L1183 1221Z" />
<glyph unicode="&#xe3;" glyph-name="atilde" d="M1101 111Q1127 111 1160 118V6Q1092 -10 1021 -10Q921 -10 876 42T824 207H818Q753 86 665 33T446 -20Q288 -20 208 66T128 302Q128 651 582 656L818 660V719Q818 850 765 907T596 965Q478 965 426 923T364 793L176
810Q222 1102 599 1102Q799 1102 899 1009T1000 738V272Q1000 192 1021 152T1101 111ZM492 117Q588 117 662 163T777 286T818 445V534L628 530Q510 528 448 504T352 431T317 299Q317 217 361 167T492 117ZM1018 1201Q976 1201 934 1219T852 1260T774 1301T700 1320Q675
1320 660 1311T635 1283T614 1201H503Q514 1297 537 1346T602 1422T706 1449Q750 1449 792 1431T874 1390T951 1349T1021 1330Q1058 1330 1078 1353T1108 1449H1220Q1204 1311 1155 1256T1018 1201Z" />
<glyph unicode="&#xe4;" glyph-name="adieresis" d="M1101 111Q1127 111 1160 118V6Q1092 -10 1021 -10Q921 -10 876 42T824 207H818Q753 86 665 33T446 -20Q288 -20 208 66T128 302Q128 651 582 656L818 660V719Q818 850 765 907T596 965Q478 965 426 923T364
793L176 810Q222 1102 599 1102Q799 1102 899 1009T1000 738V272Q1000 192 1021 152T1101 111ZM492 117Q588 117 662 163T777 286T818 445V534L628 530Q510 528 448 504T352 431T317 299Q317 217 361 167T492 117ZM969 1219V1403H1132V1219H969ZM575 1219V1403H740V1219H575Z"
/>
<glyph unicode="&#xe5;" glyph-name="aring" d="M1101 111Q1127 111 1160 118V6Q1092 -10 1021 -10Q921 -10 876 42T824 207H818Q753 86 665 33T446 -20Q288 -20 208 66T128 302Q128 651 582 656L818 660V719Q818 850 765 907T596 965Q478 965 426 923T364 793L176
810Q222 1102 599 1102Q799 1102 899 1009T1000 738V272Q1000 192 1021 152T1101 111ZM492 117Q588 117 662 163T777 286T818 445V534L628 530Q510 528 448 504T352 431T317 299Q317 217 361 167T492 117ZM1104 1348Q1104 1261 1039 1205T862 1148Q750 1148 685
1204T620 1348Q620 1437 686 1492T862 1547Q973 1547 1038 1492T1104 1348ZM983 1348Q983 1385 951 1408T862 1431Q807 1431 774 1408T740 1348Q740 1310 773 1287T862 1264Q918 1264 950 1287T983 1348Z" />
<glyph unicode="&#xe6;" glyph-name="ae" d="M679 503V486Q684 115 864 115Q939 115 983 162T1044 281L1182 236Q1114 -20 868 -20Q747 -20 679 35T576 212Q524 90 450 35T278 -20Q149 -20 85 62T20 302Q20 651 350 656L517 660V719Q517 854 485 909T381 965Q307
965 274 925T233 793L65 810Q84 961 161 1031T380 1102Q556 1102 627 963Q712 1102 873 1102Q1039 1102 1123 961T1208 527V503H679ZM189 299Q189 217 217 167T303 117Q367 117 415 161T490 281T517 445V534L395 530Q316 528 276 504T212 430T189 299ZM859 969Q777
969 731 882T681 641H1042Q1033 812 989 890T859 969Z" />
<glyph unicode="&#xe7;" glyph-name="ccedilla" d="M130 542Q130 812 259 957T632 1102Q814 1102 932 1015T1078 779L886 765Q870 856 806 908T624 961Q466 961 393 863T319 546Q319 324 392 222T623 119Q731 119 802 172T890 334L1080 322Q1067 226 1008 148T850
25T631 -20Q386 -20 258 124T130 542ZM820 -258Q820 -444 546 -444Q489 -444 456 -440V-342Q506 -348 542 -348Q689 -348 689 -262Q689 -222 659 -201T556 -180Q513 -180 499 -182L564 0H671L632 -100Q726 -103 773 -144T820 -258Z" />
<glyph unicode="&#xe8;" glyph-name="egrave" d="M322 503Q322 321 402 218T623 115Q726 115 803 159T907 281L1065 236Q1021 112 904 46T623 -20Q387 -20 260 127T133 548Q133 815 257 958T617 1102Q852 1102 973 959T1094 527V503H322ZM619 969Q485 969 407
882T324 641H908Q880 969 619 969ZM879 1201L579 1431V1460H776L1003 1221V1201H879Z" />
<glyph unicode="&#xe9;" glyph-name="eacute" d="M322 503Q322 321 402 218T623 115Q726 115 803 159T907 281L1065 236Q1021 112 904 46T623 -20Q387 -20 260 127T133 548Q133 815 257 958T617 1102Q852 1102 973 959T1094 527V503H322ZM619 969Q485 969 407
882T324 641H908Q880 969 619 969ZM513 1201V1221L740 1460H937V1431L637 1201H513Z" />
<glyph unicode="&#xea;" glyph-name="ecircumflex" d="M322 503Q322 321 402 218T623 115Q726 115 803 159T907 281L1065 236Q1021 112 904 46T623 -20Q387 -20 260 127T133 548Q133 815 257 958T617 1102Q852 1102 973 959T1094 527V503H322ZM619 969Q485 969
407 882T324 641H908Q880 969 619 969ZM952 1221V1201H847L628 1339H626L394 1201H290V1221L544 1460H708L952 1221Z" />
<glyph unicode="&#xeb;" glyph-name="edieresis" d="M322 503Q322 321 402 218T623 115Q726 115 803 159T907 281L1065 236Q1021 112 904 46T623 -20Q387 -20 260 127T133 548Q133 815 257 958T617 1102Q852 1102 973 959T1094 527V503H322ZM619 969Q485 969 407
882T324 641H908Q880 969 619 969ZM737 1219V1403H900V1219H737ZM343 1219V1403H508V1219H343Z" />
<glyph unicode="&#xec;" glyph-name="igrave" d="M745 142H1125V0H143V142H565V940H246V1082H745V142ZM891 1201L591 1431V1460H788L1015 1221V1201H891Z" />
<glyph unicode="&#xed;" glyph-name="iacute" d="M745 142H1125V0H143V142H565V940H246V1082H745V142ZM506 1201V1221L733 1460H930V1431L630 1201H506Z" />
<glyph unicode="&#xee;" glyph-name="icircumflex" d="M745 142H1125V0H143V142H565V940H246V1082H745V142ZM955 1221V1201H850L631 1339H629L397 1201H293V1221L547 1460H711L955 1221Z" />
<glyph unicode="&#xef;" glyph-name="idieresis" d="M745 142H1125V0H143V142H565V940H246V1082H745V142ZM770 1219V1403H933V1219H770ZM376 1219V1403H541V1219H376Z" />
<glyph unicode="&#xf0;" glyph-name="eth" d="M612 979Q749 979 843 920Q758 1115 623 1237L363 1122L308 1232L526 1326Q417 1413 284 1484H493Q573 1448 663 1382L927 1496L982 1388L771 1296Q1102 995 1102 516V510Q1102 249 977 115T605 -20Q373 -20 249 109T125
481Q125 725 249 852T612 979ZM913 481Q913 673 843 759T616 846Q459 846 387 759T314 481Q314 291 386 202T603 113Q764 113 838 200T913 481Z" />
<glyph unicode="&#xf1;" glyph-name="ntilde" d="M868 0V695Q868 831 816 897T648 963Q524 963 445 873T365 627V0H185V851Q185 1040 179 1082H349Q350 1077 351 1055T353 1005T357 897H360Q465 1102 706 1102Q879 1102 964 1009T1049 721V0H868ZM780 1201Q738
1201 696 1219T614 1260T536 1301T462 1320Q437 1320 422 1311T397 1283T376 1201H265Q276 1297 299 1346T364 1422T468 1449Q512 1449 554 1431T636 1390T713 1349T783 1330Q820 1330 840 1353T870 1449H982Q966 1311 917 1256T780 1201Z" />
<glyph unicode="&#xf2;" glyph-name="ograve" d="M1097 542Q1097 269 972 125T609 -20Q377 -20 254 126T130 542Q130 821 256 961T615 1102Q859 1102 978 963T1097 542ZM908 542Q908 757 840 863T618 969Q463 969 391 861T319 542Q319 332 391 223T607 113Q766
113 837 220T908 542ZM888 1201L588 1431V1460H785L1012 1221V1201H888Z" />
<glyph unicode="&#xf3;" glyph-name="oacute" d="M1097 542Q1097 269 972 125T609 -20Q377 -20 254 126T130 542Q130 821 256 961T615 1102Q859 1102 978 963T1097 542ZM908 542Q908 757 840 863T618 969Q463 969 391 861T319 542Q319 332 391 223T607 113Q766
113 837 220T908 542ZM503 1201V1221L730 1460H927V1431L627 1201H503Z" />
<glyph unicode="&#xf4;" glyph-name="ocircumflex" d="M1097 542Q1097 269 972 125T609 -20Q377 -20 254 126T130 542Q130 821 256 961T615 1102Q859 1102 978 963T1097 542ZM908 542Q908 757 840 863T618 969Q463 969 391 861T319 542Q319 332 391 223T607 113Q766
113 837 220T908 542ZM945 1221V1201H840L621 1339H619L387 1201H283V1221L537 1460H701L945 1221Z" />
<glyph unicode="&#xf5;" glyph-name="otilde" d="M1097 542Q1097 269 972 125T609 -20Q377 -20 254 126T130 542Q130 821 256 961T615 1102Q859 1102 978 963T1097 542ZM908 542Q908 757 840 863T618 969Q463 969 391 861T319 542Q319 332 391 223T607 113Q766
113 837 220T908 542ZM770 1201Q728 1201 686 1219T604 1260T526 1301T452 1320Q427 1320 412 1311T387 1283T366 1201H255Q266 1297 289 1346T354 1422T458 1449Q502 1449 544 1431T626 1390T703 1349T773 1330Q810 1330 830 1353T860 1449H972Q956 1311 907 1256T770
1201Z" />
<glyph unicode="&#xf6;" glyph-name="odieresis" d="M1097 542Q1097 269 972 125T609 -20Q377 -20 254 126T130 542Q130 821 256 961T615 1102Q859 1102 978 963T1097 542ZM908 542Q908 757 840 863T618 969Q463 969 391 861T319 542Q319 332 391 223T607 113Q766
113 837 220T908 542ZM729 1219V1403H892V1219H729ZM335 1219V1403H500V1219H335Z" />
<glyph unicode="&#xf7;" glyph-name="divide" d="M529 958V1141H697V958H529ZM116 608V754H1111V608H116ZM529 223V406H697V223H529Z" />
<glyph unicode="&#xf8;" glyph-name="oslash" d="M1117 542Q1117 270 987 125T609 -20Q405 -20 278 87L201 0L125 68L209 163Q110 305 110 542Q110 814 238 958T615 1102Q828 1102 950 1002L1022 1084L1100 1016L1020 926Q1117 789 1117 542ZM928 542Q928 689
895 784L386 208Q463 113 607 113Q775 113 851 219T928 542ZM299 542Q299 396 333 304L842 880Q767 969 618 969Q454 969 377 862T299 542Z" />
<glyph unicode="&#xf9;" glyph-name="ugrave" d="M365 1082V396Q365 240 414 180T589 119Q718 119 793 207T868 455V1082H1049V231Q1049 42 1055 0H885Q884 5 883 27T881 77T877 185H874Q812 73 731 27T528 -20Q350 -20 268 68T185 361V1082H365ZM864 1201L564
1431V1460H761L988 1221V1201H864Z" />
<glyph unicode="&#xfa;" glyph-name="uacute" d="M365 1082V396Q365 240 414 180T589 119Q718 119 793 207T868 455V1082H1049V231Q1049 42 1055 0H885Q884 5 883 27T881 77T877 185H874Q812 73 731 27T528 -20Q350 -20 268 68T185 361V1082H365ZM492 1201V1221L719
1460H916V1431L616 1201H492Z" />
<glyph unicode="&#xfb;" glyph-name="ucircumflex" d="M365 1082V396Q365 240 414 180T589 119Q718 119 793 207T868 455V1082H1049V231Q1049 42 1055 0H885Q884 5 883 27T881 77T877 185H874Q812 73 731 27T528 -20Q350 -20 268 68T185 361V1082H365ZM945 1221V1201H840L621
1339H619L387 1201H283V1221L537 1460H701L945 1221Z" />
<glyph unicode="&#xfc;" glyph-name="udieresis" d="M365 1082V396Q365 240 414 180T589 119Q718 119 793 207T868 455V1082H1049V231Q1049 42 1055 0H885Q884 5 883 27T881 77T877 185H874Q812 73 731 27T528 -20Q350 -20 268 68T185 361V1082H365ZM729 1219V1403H892V1219H729ZM335
1219V1403H500V1219H335Z" />
<glyph unicode="&#xfd;" glyph-name="yacute" d="M292 -425Q218 -425 168 -414V-279Q206 -285 252 -285Q331 -285 400 -226T518 -38L536 11L66 1082H258L522 440Q613 216 620 186L661 296L971 1082H1161L705 0Q616 -235 521 -330T292 -425ZM509 1201V1221L736
1460H933V1431L633 1201H509Z" />
<glyph unicode="&#xfe;" glyph-name="thorn" d="M904 546Q904 772 843 868T651 965Q500 965 433 856T366 524Q366 311 433 212T649 113Q782 113 843 214T904 546ZM368 904Q418 1009 495 1056T698 1104Q896 1104 993 968T1090 546Q1090 -20 698 -20Q452 -20 367
164H362Q366 156 366 -2V-425H185V1484H365V1061Q365 996 361 904H368Z" />
<glyph unicode="&#xff;" glyph-name="ydieresis" d="M292 -425Q218 -425 168 -414V-279Q206 -285 252 -285Q331 -285 400 -226T518 -38L536 11L66 1082H258L522 440Q613 216 620 186L661 296L971 1082H1161L705 0Q616 -235 521 -330T292 -425ZM734 1219V1403H897V1219H734ZM340
1219V1403H505V1219H340Z" />
<glyph unicode="&#x2013;" glyph-name="endash" d="M170 451V588H1058V451H170Z" />
<glyph unicode="&#x2014;" glyph-name="emdash" d="M-10 451V588H1238V451H-10Z" />
<glyph unicode="&#x2018;" glyph-name="quoteleft" d="M831 1484L662 862H397L708 1484H831Z" />
<glyph unicode="&#x2019;" glyph-name="quoteright" d="M399 862L568 1484H833L522 862H399Z" />
<glyph unicode="&#x201a;" glyph-name="quotesinglbase" d="M349 -363L518 259H783L472 -363H349Z" />
<glyph unicode="&#x201c;" glyph-name="quotedblleft" d="M611 1484L442 862H177L488 1484H611ZM1050 1484L881 862H616L927 1484H1050Z" />
<glyph unicode="&#x201d;" glyph-name="quotedblright" d="M617 862L786 1484H1051L740 862H617ZM178 862L347 1484H612L301 862H178Z" />
<glyph unicode="&#x201e;" glyph-name="quotedblbase" d="M617 -364L786 258H1051L740 -364H617ZM178 -364L347 258H612L301 -364H178Z" />
<glyph unicode="&#x2022;" glyph-name="bullet" d="M891 682Q891 565 808 483T610 401Q499 401 418 483T336 682Q336 797 417 876T610 956Q725 956 808 877T891 682Z" />
<glyph unicode="&#x2039;" glyph-name="guilsinglleft" d="M682 141L346 506V569L682 940H859V909L524 537L861 170V141H682Z" />
<glyph unicode="&#x203a;" glyph-name="guilsinglright" d="M544 141H366V170L704 537L368 909V940H544L881 569V506L544 141Z" />
</font>
</defs>
</svg>
