<svg xmlns="http://www.w3.org/2000/svg" viewBox="0 0 24 24">
  <path d="M12,6.00041a5.76967,5.76967,0,0,1,6,5.50665c0,2.99529-1.96645,2.67154-2.33586,5.93683a.57557.57557,0,0,1-.59946.55065l-.00066,0H8.936a.57558.57558,0,0,1-.6001-.55l0-.00066h0C7.96605,14.1786,6,14.50235,6,11.50706A5.76967,5.76967,0,0,1,12,6.00041Zm2.77807,13.31354a.67785.67785,0,0,1,0,1.3332H9.22193a.67785.67785,0,0,1,0-1.3332ZM14.6668,21.6668A1.33319,1.33319,0,0,1,13.33361,23H10.66639A1.33319,1.33319,0,0,1,9.3332,21.6668Z" fill="#8f9dc9"/>
  <rect x="10.5" y="1.5" width="3" height="2" rx="1" transform="translate(9.5 14.5) rotate(-90)" fill="#8f9dc9"/>
  <rect x="17.23256" y="4.31744" width="3" height="2" rx="1" transform="translate(1.72664 14.80336) rotate(-45)" fill="#8f9dc9"/>
  <rect x="20" y="10.99998" width="3" height="2" rx="1" fill="#8f9dc9"/>
  <rect x="1" y="10.99998" width="3" height="2" rx="1" fill="#8f9dc9"/>
  <rect x="3.775" y="4.275" width="3" height="2" rx="1" transform="translate(5.275 12.73498) rotate(-135)" fill="#8f9dc9"/>
</svg>
