<?xml version="1.0" standalone="no"?><!DOCTYPE svg PUBLIC "-//W3C//DTD SVG 1.1//EN" "http://www.w3.org/Graphics/SVG/1.1/DTD/svg11.dtd"><svg t="1652861830560" class="icon" viewBox="0 0 1024 1024" version="1.1" xmlns="http://www.w3.org/2000/svg" p-id="2653" xmlns:xlink="http://www.w3.org/1999/xlink" width="200" height="200"><defs><style type="text/css"></style></defs><path d="M0 0h665.6v768H0z" fill="#009FFF" p-id="2654"></path><path d="M307.2 204.8h716.8v819.2H307.2z" fill="#00FFCD" opacity=".7" p-id="2655"></path><path d="M512 460.8h307.2c30.72 0 51.2 20.48 51.2 51.2s-20.48 51.2-51.2 51.2h-307.2c-30.72 0-51.2-20.48-51.2-51.2s20.48-51.2 51.2-51.2zM512 665.6h307.2c30.72 0 51.2 20.48 51.2 51.2s-20.48 51.2-51.2 51.2h-307.2c-30.72 0-51.2-20.48-51.2-51.2s20.48-51.2 51.2-51.2z" fill="#FFFFFF" p-id="2656"></path></svg>