<?xml version="1.0" encoding="utf-8"?>
<!-- Generator: Adobe Illustrator 23.0.1, SVG Export Plug-In . SVG Version: 6.00 Build 0)  -->
<svg version="1.1" id="图层_1" xmlns="http://www.w3.org/2000/svg" xmlns:xlink="http://www.w3.org/1999/xlink" x="0px" y="0px"
	 viewBox="0 0 72 72" style="enable-background:new 0 0 72 72;" xml:space="preserve">
<style type="text/css">
	.st0{fill-rule:evenodd;clip-rule:evenodd;fill:#FFFFFF;}
	.st1{fill-rule:evenodd;clip-rule:evenodd;fill:#101099;}
	.st2{fill:url(#路径_1_);}
</style>
<rect id="矩形" class="st0" width="72" height="72"/>
<path id="形状结合" class="st1" d="M46.8,22c2.3,0,4.4,0.9,6,2.4c1.5-1.5,3.6-2.4,6-2.4h3.1v3.8c0,0.9-0.7,1.6-1.6,1.6h-1.5
	c-0.9,0-1.7,0.3-2.3,1c-0.6,0.6-1,1.4-1,2.3v18.4h-5.4V30.6c0-0.9-0.3-1.7-1-2.3c-0.6-0.6-1.4-1-2.3-1h-1.5c-0.9,0-1.6-0.7-1.6-1.6
	V22H46.8z M26,29.5c0.4,3.1,3.5,5.6,7.5,6c0.1,0,0.1,0.1,0,0.1c-4,0.3-7.1,2.8-7.5,6l0,0h-0.1c-0.4-3.1-3.5-5.6-7.5-6l0,0v-0.1
	C22.4,35.2,25.5,32.7,26,29.5L26,29.5L26,29.5z"/>
<linearGradient id="路径_1_" gradientUnits="userSpaceOnUse" x1="-629.9084" y1="407.6762" x2="-628.9097" y2="407.6762" gradientTransform="matrix(40.1451 0 0 -27.0591 25297.75 11066.8994)">
	<stop  offset="0" style="stop-color:#101099"/>
	<stop  offset="0.87" style="stop-color:#101099"/>
	<stop  offset="1" style="stop-color:#101099;stop-opacity:0"/>
</linearGradient>
<path id="路径" class="st2" d="M50.1,49.1h-7.8c-3.4,0-6.1-2.8-6.1-6.1v-13c0-1.4-1.1-2.5-2.5-2.5H17.8c-1.4,0-2.5,1.1-2.5,2.5
	v11.3c0,0.7,0.3,1.3,0.7,1.8c0.5,0.5,1.1,0.7,1.8,0.7h15.5v5.4H17.9c-4.4,0-7.9-3.5-7.9-7.9V29.9c0-4.3,3.5-7.9,7.9-7.9h15.8
	c4.3,0,7.9,3.5,7.9,7.9v13c0,0.4,0.3,0.8,0.8,0.8h7.8"/>
</svg>
