<?xml version="1.0" encoding="utf-8"?>
<!-- Generator: Adobe Illustrator 23.0.1, SVG Export Plug-In . SVG Version: 6.00 Build 0)  -->
<svg version="1.1" id="logo" xmlns="http://www.w3.org/2000/svg" xmlns:xlink="http://www.w3.org/1999/xlink" x="0px" y="0px"
	 viewBox="0 0 460 72" style="enable-background:new 0 0 460 72;" xml:space="preserve">
<style type="text/css">
	.st0{fill-rule:evenodd;clip-rule:evenodd;fill:#313131;}
	.st1{fill:url(#layer1_1_);}
</style>
<path id="layer2" class="st0" d="M287.3,2.5v15.9h24.2c7.9,0,14.3,6.4,14.3,14.3l0,0V72h-8.1V32.8c0-3.5-2.8-6.3-6.3-6.3l0,0h-24.1
	v45.3h-8.1V2.5H287.3z M398.4,2.5v55.1c0,3.4,2.8,6.1,6.2,6.2l0,0h4.1V72h-4.1c-7.9,0-14.3-6.4-14.3-14.3l0,0V2.5H398.4z
	 M365.3,18.4c7.9,0,14.3,6.4,14.3,14.3l0,0V61c0,0.7,0.3,1.5,0.8,2s1.3,0.8,2,0.8l0,0h4.2v8.1h-4.2c-6,0-10.9-4.9-10.9-10.9l0,0
	V32.7c0-3.5-2.8-6.3-6.3-6.3l0,0h-18c-3.5,0-6.3,2.8-6.3,6.3l0,0v24.8c0,3.5,2.8,6.3,6.3,6.3l0,0h20V72h-20
	c-7.9,0-14.3-6.4-14.3-14.3l0,0v-25c0-7.9,6.4-14.3,14.3-14.3l0,0C347.2,18.4,365.3,18.4,365.3,18.4z M444.9,18.5
	c7.9,0,14.3,6.4,14.3,14.3l0,0v16.5h-32.8v-8.2h24.8v-8.3c0-3.5-2.8-6.3-6.3-6.3l0,0h-18.1c-3.5,0-6.3,2.8-6.3,6.3l0,0v24.8
	c0,3.5,2.8,6.3,6.3,6.3l0,0h32.3V72h-32.3c-7.9,0-14.3-6.4-14.3-14.3l0,0V32.8c0-7.9,6.4-14.3,14.3-14.3l0,0H444.9z M211.9,18.4
	l11.5,42.8l9.9-42.8h12.3l9.9,42.8L267,18.4h8.4L261,71.9h-11.4l-10.2-44.2l-10.2,44.2h-11.4l-14.4-53.5
	C203.4,18.4,211.9,18.4,211.9,18.4z M170.1,18.4c4.6,0,8.7,1.8,11.8,4.7c3.1-2.9,7.2-4.7,11.8-4.7h6.1v7.5c0,1.7-1.4,3.1-3.1,3.2
	h-2.9c-1.7,0-3.4,0.7-4.6,1.9c-1.2,1.2-1.9,2.8-1.9,4.6V72h-10.6V35.5c0-1.7-0.7-3.4-1.9-4.6c-1.2-1.2-2.9-1.9-4.6-1.9h-2.9
	c-1.7,0-3.1-1.4-3.2-3.2v-7.5h6V18.4z M57.4,0v10.6H17.7c-3.3,0-6.2,2.3-6.9,5.6s1,6.6,4.1,7.9L46.7,38c7.6,3.4,11.9,11.6,10.2,19.8
	c-1.7,8.2-8.9,14-17.3,14H0V61.3h39.7c3.3,0,6.2-2.3,6.9-5.6c0.7-3.2-1-6.5-4-7.9l-31.8-14C3,30.5-1.3,22.2,0.4,14.1S9.4,0,17.7,0
	H57.4z M76,0v18.4h15.4V29H76v27.3c0,2.7,2.2,4.9,4.9,4.9h10.4v10.6H81c-8.6,0-15.6-7-15.6-15.6V0H76z M128.9,33.3
	c0.8,6.2,7,11.1,14.9,11.8c0.1,0,0.1,0.1,0,0.1c-7.9,0.7-14.1,5.5-14.9,11.8l0,0h-0.1c-0.8-6.2-7-11.1-14.9-11.8l0,0v-0.1
	c7.9-0.6,14.1-5.5,14.9-11.8l0,0H128.9z"/>
<linearGradient id="layer1_1_" gradientUnits="userSpaceOnUse" x1="-892.6031" y1="13.4799" x2="-891.6046" y2="13.4799" gradientTransform="matrix(79.3252 0 0 53.4678 70903.3281 -675.5415)">
	<stop  offset="0" style="stop-color:#313131"/>
	<stop  offset="0.87" style="stop-color:#313131"/>
	<stop  offset="1" style="stop-color:#313131;stop-opacity:0"/>
</linearGradient>
<path id="layer1" class="st1" d="M176.6,71.9h-15.4c-6.7,0-12.1-5.4-12.1-12.1V34c0-2.7-2.2-4.9-4.9-4.9h-31.3
	c-2.7,0-4.9,2.2-4.9,4.9v22.4c0,1.3,0.5,2.6,1.4,3.5s2.2,1.4,3.5,1.4h30.7v10.6H113c-8.6,0-15.6-7-15.6-15.6V34
	c0-8.6,7-15.5,15.6-15.5h31.3c8.6,0,15.5,7,15.5,15.5v25.7c0,0.8,0.7,1.5,1.5,1.5h15.4"/>
</svg>
