<?xml version="1.0" encoding="utf-8"?>
<!-- Generator: Adobe Illustrator 23.0.1, SVG Export Plug-In . SVG Version: 6.00 Build 0)  -->
<svg version="1.1" id="logoar" xmlns="http://www.w3.org/2000/svg" xmlns:xlink="http://www.w3.org/1999/xlink" x="0px" y="0px"
	 viewBox="0 0 137 72" style="enable-background:new 0 0 137 72;" xml:space="preserve">
<style type="text/css">
	.st0{fill-rule:evenodd;clip-rule:evenodd;fill:#FFFFFF;}
	.st1{fill:url(#logoa_1_);}
</style>
<path id="logo_1_" class="st0" d="M97,0c6.1,0,11.6,2.4,15.7,6.3c4.1-3.9,9.6-6.3,15.7-6.3h8.1v10c0,2.3-1.9,4.2-4.2,4.2h-3.9
	c-2.3,0-4.5,0.9-6.1,2.5s-2.5,3.8-2.5,6.1v48.5h-14.2V22.8c0-2.3-0.9-4.5-2.5-6.1s-3.8-2.5-6.1-2.5h-3.9c-2.3,0-4.2-1.9-4.2-4.2V0
	H97z M42.1,19.8c1,8.3,9.3,14.9,19.8,15.7c0.1,0,0.1,0.2,0,0.2c-10.5,0.9-18.8,7.4-19.8,15.7l0,0h-0.2c-1-8.3-9.3-14.8-19.8-15.7
	l0,0v-0.2c10.5-0.9,18.8-7.4,19.8-15.7l0,0H42.1z"/>
<linearGradient id="logoa_1_" gradientUnits="userSpaceOnUse" x1="-608.1948" y1="415.6326" x2="-607.1961" y2="415.6326" gradientTransform="matrix(105.767 0 0 -71.2904 64326.9141 29666.2734)">
	<stop  offset="0" style="stop-color:#FFFFFF"/>
	<stop  offset="0.87" style="stop-color:#FFFFFF"/>
	<stop  offset="1" style="stop-color:#FFFFFF;stop-opacity:0"/>
</linearGradient>
<path id="logoa" class="st1" d="M105.6,71.3H85.1c-8.9,0-16.2-7.3-16.2-16.2V20.7c0-3.6-2.9-6.6-6.6-6.6H20.6
	c-3.6,0-6.6,2.9-6.6,6.6v29.8c0,1.7,0.7,3.4,1.9,4.7c1.2,1.2,2.9,1.9,4.7,1.9h40.9v14.2H20.8C9.3,71.3,0,62,0,50.5V20.7
	C0,9.3,9.3,0,20.8,0h41.7c11.4,0,20.7,9.3,20.7,20.7V55c0,1.1,0.9,2,2,2h20.5"/>
</svg>
