<?xml version="1.0" encoding="utf-8"?>
<!-- Generator: Adobe Illustrator 23.0.1, SVG Export Plug-In . SVG Version: 6.00 Build 0)  -->
<svg version="1.1" id="null2" xmlns="http://www.w3.org/2000/svg" xmlns:xlink="http://www.w3.org/1999/xlink" x="0px" y="0px"
	 viewBox="0 0 64 64" style="enable-background:new 0 0 64 64;" xml:space="preserve">
<style type="text/css">
	.st0{fill-rule:evenodd;clip-rule:evenodd;fill:#CDDBF7;}
	.st1{fill-rule:evenodd;clip-rule:evenodd;fill:#BED0F1;}
	.st2{fill-rule:evenodd;clip-rule:evenodd;fill:#ADC1E5;}
	.st3{fill-rule:evenodd;clip-rule:evenodd;fill:#DFE8FB;}
	.st4{fill-rule:evenodd;clip-rule:evenodd;fill:url(#layer9_1_);}
	.st5{fill-rule:evenodd;clip-rule:evenodd;fill:url(#layer8_1_);}
	.st6{fill:#EDF2FF;}
	.st7{fill-rule:evenodd;clip-rule:evenodd;fill:#8AA1CA;}
	.st8{fill-rule:evenodd;clip-rule:evenodd;fill:#DFEAFF;}
	.st9{fill-rule:evenodd;clip-rule:evenodd;fill:#9FB7E2;}
	.st10{fill-rule:evenodd;clip-rule:evenodd;fill:#C6D6F4;}
</style>
<path id="layer13" class="st0" d="M15.3,19h33.4c0.8,0,1.5,0.5,1.8,1.2L60,42l0,0v7H4v-7l9.5-21.8C13.8,19.5,14.5,19,15.3,19z"/>
<path id="layer12" class="st1" d="M14.5,19.2V39h35V19.2c0.4,0.2,0.8,0.6,1,1L60,42v7H4v-7l9.5-21.8C13.7,19.7,14.1,19.4,14.5,19.2z
	"/>
<path id="layer11" class="st2" d="M15.2,34h33.6c0.4,0,0.8,0.3,0.9,0.7L55,49l0,0H9l5.3-14.3C14.4,34.3,14.8,34,15.2,34z"/>
<path id="layer10" class="st3" d="M4,42h13.1c0.6,0,1.2,0.3,1.5,0.7l3.8,4.6c0.4,0.5,0.9,0.7,1.5,0.7H40c0.6,0,1.2-0.3,1.5-0.7
	l3.8-4.6c0.4-0.5,0.9-0.7,1.5-0.7H60l0,0v19c0,1.7-1.3,3-3,3H7c-1.7,0-3-1.3-3-3V42L4,42z"/>
<linearGradient id="layer9_1_" gradientUnits="userSpaceOnUse" x1="-2664.625" y1="192.75" x2="-2664.625" y2="191.75" gradientTransform="matrix(24 0 0 -4 63983 823)">
	<stop  offset="0" style="stop-color:#ADC1E5"/>
	<stop  offset="1" style="stop-color:#ADC1E5"/>
</linearGradient>
<path id="layer9" class="st4" d="M22,52h20c1.1,0,2,0.9,2,2l0,0c0,1.1-0.9,2-2,2H22c-1.1,0-2-0.9-2-2l0,0C20,52.9,20.9,52,22,52z"/>
<radialGradient id="layer8_1_" cx="-2224.377" cy="268.395" r="0.7016" gradientTransform="matrix(5 0 0 -5 11183 1369)" gradientUnits="userSpaceOnUse">
	<stop  offset="6.555944e-04" style="stop-color:#FFFFFF"/>
	<stop  offset="1" style="stop-color:#AAC9FF"/>
</radialGradient>
<circle id="layer8" class="st5" cx="61.5" cy="27.5" r="2.5"/>
<path id="layer7" class="st6" d="M18.3,40.3c0.1-0.3,0.3-0.6,0.4-0.9c0.1-0.3,0-0.5-0.3-0.7c-0.3-0.1-0.5,0-0.7,0.3
	c-0.1,0.3-0.3,0.6-0.4,0.9c-0.1,0.3,0,0.5,0.3,0.7C17.9,40.7,18.2,40.6,18.3,40.3z M19.6,37.7c0.2-0.3,0.3-0.6,0.5-0.8
	c0.1-0.2,0.1-0.5-0.2-0.7c-0.2-0.1-0.5-0.1-0.7,0.2s-0.4,0.6-0.5,0.9c-0.1,0.2,0,0.5,0.2,0.7C19.2,38,19.5,37.9,19.6,37.7z
	 M21.2,35.3c0.2-0.2,0.4-0.5,0.7-0.7c0.2-0.2,0.2-0.5,0-0.7s-0.5-0.2-0.7,0c-0.3,0.2-0.5,0.5-0.7,0.8c-0.2,0.2-0.2,0.5,0,0.7
	C20.7,35.5,21.1,35.5,21.2,35.3z M23.5,33.6c0.3-0.1,0.6-0.3,0.9-0.4c0.3-0.1,0.4-0.4,0.3-0.6s-0.4-0.4-0.6-0.3
	c-0.3,0.1-0.7,0.3-1,0.4c-0.2,0.1-0.4,0.4-0.2,0.7S23.2,33.7,23.5,33.6z M26.2,32.7c0.3-0.1,0.6-0.1,1-0.2c0.3,0,0.5-0.3,0.4-0.6
	c0-0.3-0.3-0.5-0.6-0.4c-0.3,0.1-0.7,0.1-1,0.2s-0.4,0.3-0.4,0.6C25.7,32.6,25.9,32.7,26.2,32.7z M29.1,32.2c0.3,0,0.7,0,1,0
	s0.5-0.2,0.5-0.5s-0.2-0.5-0.5-0.5s-0.7,0-1,0s-0.5,0.3-0.5,0.5C28.6,32,28.9,32.2,29.1,32.2z M31.9,32.4c0.3,0.1,0.5,0.2,0.6,0.3
	l0.1,0.1c0.2,0.2,0.5,0.1,0.7-0.1c0.2-0.2,0.1-0.5-0.1-0.7c-0.3-0.2-0.6-0.4-1.1-0.5c-0.3-0.1-0.5,0.1-0.6,0.3
	C31.5,32.1,31.7,32.4,31.9,32.4z M33.5,34.3c0.1,0.3,0.2,0.6,0.2,0.9c0,0.3,0.3,0.5,0.6,0.4c0.3,0,0.5-0.3,0.4-0.6
	c-0.1-0.4-0.1-0.7-0.3-1.1c-0.1-0.3-0.4-0.4-0.6-0.3C33.6,33.8,33.4,34.1,33.5,34.3z M33.6,36.9c-0.1,0.3-0.3,0.5-0.4,0.7
	c-0.2,0.2-0.2,0.5,0.1,0.7c0.2,0.2,0.5,0.2,0.7-0.1c0.3-0.3,0.5-0.6,0.6-1c0.1-0.3,0-0.5-0.3-0.7C34,36.5,33.7,36.7,33.6,36.9z
	 M31.6,38.5c-0.3,0.1-0.6,0.1-0.9,0.1s-0.5,0.2-0.5,0.5s0.2,0.5,0.5,0.5c0.4,0,0.8,0,1.1-0.1s0.4-0.3,0.4-0.6
	C32.2,38.6,31.9,38.5,31.6,38.5z M29.2,38.1c-0.2-0.2-0.4-0.4-0.5-0.6c-0.1-0.2-0.4-0.3-0.7-0.2c-0.2,0.1-0.3,0.4-0.2,0.7
	c0.2,0.4,0.4,0.7,0.7,0.9c0.2,0.2,0.5,0.1,0.7-0.1C29.5,38.6,29.4,38.2,29.2,38.1z M28.3,35.7c0-0.3,0-0.6,0-0.9
	c0-0.3-0.2-0.5-0.5-0.5s-0.5,0.2-0.5,0.5c0,0.4,0,0.7,0,1.1c0,0.3,0.3,0.5,0.5,0.5C28.1,36.2,28.3,35.9,28.3,35.7z M28.6,32.8
	c0.1-0.3,0.2-0.6,0.3-0.9c0.1-0.3-0.1-0.5-0.3-0.6s-0.5,0.1-0.6,0.3c-0.1,0.3-0.2,0.7-0.3,1c-0.1,0.3,0.1,0.5,0.4,0.6
	S28.6,33,28.6,32.8z M29.6,30.1c0.2-0.3,0.3-0.6,0.5-0.8c0.2-0.2,0.1-0.5-0.1-0.7s-0.5-0.1-0.7,0.1c-0.2,0.3-0.4,0.6-0.5,0.9
	c-0.1,0.2,0,0.5,0.2,0.7C29.2,30.4,29.5,30.3,29.6,30.1z M31.4,27.9c0.2-0.2,0.5-0.4,0.8-0.5c0.2-0.1,0.3-0.5,0.2-0.7
	s-0.5-0.3-0.7-0.2c-0.3,0.2-0.6,0.4-0.9,0.6c-0.2,0.2-0.2,0.5-0.1,0.7C30.8,28,31.1,28.1,31.4,27.9z M33.9,26.5
	c0.3-0.1,0.6-0.2,0.9-0.3c0.3-0.1,0.4-0.4,0.3-0.6c-0.1-0.3-0.4-0.4-0.6-0.3c-0.3,0.1-0.7,0.2-1,0.4c-0.3,0.1-0.4,0.4-0.3,0.7
	C33.3,26.5,33.6,26.6,33.9,26.5z M36.6,25.6c0.3-0.1,0.6-0.1,0.9-0.2c0.3-0.1,0.4-0.3,0.4-0.6c-0.1-0.3-0.3-0.4-0.6-0.4
	c-0.3,0.1-0.6,0.1-0.9,0.2S36,25,36,25.2C36.1,25.5,36.4,25.7,36.6,25.6z"/>
<polygon id="layer6" class="st7" points="38.4,16.6 38.4,24.9 63.3,0 "/>
<polygon id="layer5" class="st8" points="28.7,13.8 38.4,16.6 63.3,0 "/>
<polygon id="layer4" class="st8" points="41.8,18 63.3,0 52.9,23.5 "/>
<polygon id="layer3" class="st9" points="41.8,18 38.4,24.9 44.2,19.2 "/>
<path id="layer2" class="st3" d="M47.9,33.5l-5.6-1.9c-0.3,3-1.1,4.9-2.5,5.8s-2.3,2.1-2.5,3.9l6.1,2.6c0.3-2.4,1.1-4.2,2.4-5.4
	S47.9,35.5,47.9,33.5z"/>
<path id="layer1_1_" class="st3" d="M17.9,6c-1.5,1-2.9,1.5-4.1,1.7c-1.3,0.2-2.6,0.2-4.2,0c-0.7,1.5-1.8,2.9-3.3,4S2.9,14,0.4,15
	c3.8,1.9,7,2.6,9.5,2.3c3.8-0.5,6.1-3.4,7.3-6.1C17.9,9.5,18.2,7.7,17.9,6z"/>
<path id="layer" class="st10" d="M10.2,13.9c-0.6,0.7-1.4,1.2-2.3,1.7c-0.9,0.5-1.9,0.9-3,1.2l0,0c1.9,0.6,3.6,0.7,5.1,0.6
	c3.8-0.5,6.1-3.4,7.3-6.1l0,0c-1.5,0.9-2.8,1.5-3.8,1.9S11.3,13.8,10.2,13.9z"/>
</svg>
