<?xml version="1.0" standalone="no"?><!DOCTYPE svg PUBLIC "-//W3C//DTD SVG 1.1//EN" "http://www.w3.org/Graphics/SVG/1.1/DTD/svg11.dtd"><svg t="1675325757434" class="icon" viewBox="0 0 1024 1024" version="1.1" xmlns="http://www.w3.org/2000/svg" p-id="3597" data-darkreader-inline-fill="" xmlns:xlink="http://www.w3.org/1999/xlink" width="200" height="200"><path d="M179.2 0L0 332.8 179.2 665.6h409.6L768 332.8 588.8 0z" fill="#009FFF" p-id="3598" data-darkreader-inline-fill="" style="--darkreader-inline-fill:#007fcc;"></path><path d="M281.6 153.6L51.2 588.8 281.6 1024h512l230.4-435.2L793.6 153.6z" fill="#00FFCD" opacity=".7" p-id="3599" data-darkreader-inline-fill="" style="--darkreader-inline-fill:#00ccae;"></path><path d="M537.6 384c112.64 0 204.8 92.16 204.8 204.8s-92.16 204.8-204.8 204.8-204.8-92.16-204.8-204.8 92.16-204.8 204.8-204.8z m0 102.4c-56.32 0-102.4 46.08-102.4 102.4s46.08 102.4 102.4 102.4 102.4-46.08 102.4-102.4-46.08-102.4-102.4-102.4z" fill="#FFFFFF" p-id="3600" data-darkreader-inline-fill="" style="--darkreader-inline-fill:#181a1b;"></path></svg>