<?xml version="1.0" standalone="no"?><!DOCTYPE svg PUBLIC "-//W3C//DTD SVG 1.1//EN" "http://www.w3.org/Graphics/SVG/1.1/DTD/svg11.dtd"><svg t="1682494426825" class="icon" viewBox="0 0 1024 1024" version="1.1" xmlns="http://www.w3.org/2000/svg" p-id="3794" data-darkreader-inline-fill="" xmlns:xlink="http://www.w3.org/1999/xlink" width="200" height="200"><path d="M870.4 0c84.48 0 153.6 69.12 153.6 153.6v716.8c0 84.48-69.12 153.6-153.6 153.6H153.6c-84.48 0-153.6-69.12-153.6-153.6V153.6C0 69.12 69.12 0 153.6 0h716.8z" fill="#0DC919" p-id="3795" data-darkreader-inline-fill="" style="--darkreader-inline-fill:#0aa114;"></path><path d="M668.16 399.36c126.293333 0 236.373333 91.306667 236.373333 202.24 0 63.146667-40.96 120.32-98.133333 161.28l22.186667 69.12-75.946667-40.96c-28.16 5.973333-57.173333 12.8-85.333333 12.8-132.266667 0-236.373333-91.306667-236.373334-202.24s104.96-202.24 237.226667-202.24zM396.8 191.146667c135.68 0 255.146667 81.92 280.746667 196.266666-9.386667-3.413333-18.773333-3.413333-28.16-3.413333-132.266667 0-236.373333 98.133333-236.373334 221.013333 0 22.186667 3.413333 40.96 9.386667 59.733334h-25.6c-34.986667 0-63.146667-5.973333-98.133333-12.8l-98.133334 50.346666 28.16-85.333333C160.426667 567.466667 119.466667 504.32 119.466667 428.373333c0-133.12 122.88-237.226667 277.333333-237.226666z m192.853333 319.146666c-15.36 0-28.16 16.213333-28.16 28.16 0 16.213333 15.36 28.16 28.16 28.16 22.186667 0 34.986667-12.8 34.986667-28.16-0.853333-15.36-13.653333-28.16-34.986667-28.16z m154.453334 0c-15.36 0-28.16 16.213333-28.16 28.16 0 16.213333 15.36 28.16 28.16 28.16 22.186667 0 34.986667-12.8 34.986666-28.16-0.853333-15.36-13.653333-28.16-34.986666-28.16zM500.906667 308.053333c-22.186667 0-44.373333 12.8-40.96 34.986667 0 22.186667 18.773333 34.986667 40.96 34.986667 22.186667 0 34.986667-12.8 34.986666-34.986667 0-22.186667-12.8-34.986667-34.986666-34.986667z m-195.413334 0c-18.773333 0-40.96 12.8-40.96 34.986667 0 22.186667 18.773333 34.986667 40.96 34.986667 18.773333 0 34.986667-12.8 34.986667-34.986667 0-22.186667-16.213333-34.986667-34.986667-34.986667z" fill="#FFFFFF" p-id="3796" data-darkreader-inline-fill="" style="--darkreader-inline-fill:#181a1b;"></path></svg>