<?xml version="1.0" encoding="utf-8"?>
<!-- Generator: Adobe Illustrator 23.0.1, SVG Export Plug-In . SVG Version: 6.00 Build 0)  -->
<svg version="1.1" id="individuals" xmlns="http://www.w3.org/2000/svg" xmlns:xlink="http://www.w3.org/1999/xlink" x="0px"
	 y="0px" viewBox="0 0 320 210" style="enable-background:new 0 0 320 210;" xml:space="preserve">
<style type="text/css">
	.st0{fill-rule:evenodd;clip-rule:evenodd;fill:#FFFFFF;}
	.st1{fill-rule:evenodd;clip-rule:evenodd;fill:url(#_x38__2_);}
	.st2{fill-rule:evenodd;clip-rule:evenodd;fill:url(#_x37__2_);}
	.st3{fill-rule:evenodd;clip-rule:evenodd;fill:#7EA8FF;}
	.st4{fill-rule:evenodd;clip-rule:evenodd;fill:#9CBBFF;}
	.st5{fill-rule:evenodd;clip-rule:evenodd;fill:#DAE6FF;}
	.st6{fill-rule:evenodd;clip-rule:evenodd;fill:#4D88FF;}
	.st7{fill-rule:evenodd;clip-rule:evenodd;fill:#1261FF;}
	.st8{fill-rule:evenodd;clip-rule:evenodd;fill:#80AAFF;}
	.st9{opacity:0.3;fill-rule:evenodd;clip-rule:evenodd;fill:url(#layer8_1_);enable-background:new    ;}
	.st10{fill-rule:evenodd;clip-rule:evenodd;fill:#B7CDFF;}
	.st11{fill-rule:evenodd;clip-rule:evenodd;fill:#8CB0FF;}
	.st12{fill-rule:evenodd;clip-rule:evenodd;fill:#74A2FF;}
	.st13{fill-rule:evenodd;clip-rule:evenodd;fill:#87AEFF;stroke:#FFFFFF;}
	.st14{fill-rule:evenodd;clip-rule:evenodd;fill:#CADBFF;}
	.st15{fill-rule:evenodd;clip-rule:evenodd;fill:#A8C4FF;}
	.st16{fill-rule:evenodd;clip-rule:evenodd;fill:#FFFFFF;stroke:#E1ECFF;stroke-width:3;}
	.st17{fill:none;stroke:#8AB4FF;}
	.st18{filter:url(#Adobe_OpacityMaskFilter);}
	.st19{mask:url(#mask-5_1_);fill:url(#_x34_-1_1_);}
	.st20{fill-rule:evenodd;clip-rule:evenodd;fill:#EAF1FE;}
	.st21{opacity:0.8;fill-rule:evenodd;clip-rule:evenodd;fill:#FFFFFF;enable-background:new    ;}
	.st22{fill:#FFFFFF;}
	.st23{opacity:0.4;}
	.st24{fill-rule:evenodd;clip-rule:evenodd;fill:url(#_x32__8_);}
	.st25{fill-rule:evenodd;clip-rule:evenodd;fill:url(#_x31__8_);}
	.st26{opacity:0.7;}
	.st27{fill-rule:evenodd;clip-rule:evenodd;fill:url(#_x32__9_);}
	.st28{fill-rule:evenodd;clip-rule:evenodd;fill:url(#_x31__9_);}
	.st29{fill-rule:evenodd;clip-rule:evenodd;fill:url(#_x32__10_);}
	.st30{fill-rule:evenodd;clip-rule:evenodd;fill:url(#_x31__10_);}
	.st31{fill-rule:evenodd;clip-rule:evenodd;fill:url(#_x32__11_);}
	.st32{fill-rule:evenodd;clip-rule:evenodd;fill:url(#_x31__11_);}
	.st33{opacity:0.5;}
	.st34{fill-rule:evenodd;clip-rule:evenodd;fill:url(#_x32__12_);}
	.st35{fill-rule:evenodd;clip-rule:evenodd;fill:url(#_x31__12_);}
	.st36{fill-rule:evenodd;clip-rule:evenodd;fill:url(#_x32__13_);}
	.st37{fill-rule:evenodd;clip-rule:evenodd;fill:url(#_x31__13_);}
</style>
<path id="bg" class="st0" d="M12,0h296c6.6,0,12,5.4,12,12v198l0,0H0V12C0,5.4,5.4,0,12,0z"/>
<g id="layer9" transform="translate(55.000000, 120.261837)">
	
		<linearGradient id="_x38__2_" gradientUnits="userSpaceOnUse" x1="-849.6772" y1="520.1451" x2="-849.6538" y2="520.0148" gradientTransform="matrix(209.5238 0 0 -84.3137 178134.3281 43892.9453)">
		<stop  offset="0" style="stop-color:#77A5FF;stop-opacity:9.178663e-02"/>
		<stop  offset="1" style="stop-color:#77A5FF"/>
	</linearGradient>
	<polygon id="_x38__1_" class="st1" points="0,42.7 95.6,0 209.5,23.7 115.8,84.3 	"/>
	
		<linearGradient id="_x37__2_" gradientUnits="userSpaceOnUse" x1="-848.3659" y1="518.1772" x2="-848.4163" y2="518.0757" gradientTransform="matrix(155.2175 0 0 -60.8186 131783.875 31550.4941)">
		<stop  offset="0" style="stop-color:#6FA1FF;stop-opacity:0.4461"/>
		<stop  offset="0.9992" style="stop-color:#4684FF"/>
	</linearGradient>
	<polygon id="_x37__1_" class="st2" points="27.1,40.3 96.6,9.9 182.3,27.8 115.8,70.7 	"/>
	<polygon id="_x36__1_" class="st3" points="65,33.4 114.9,48.1 114.9,57.9 65,43.2 	"/>
	<polygon id="_x35__1_" class="st4" points="114.9,48.1 147.3,27.4 147.3,37.3 114.9,57.9 	"/>
	<polygon id="_x34__1_" class="st5" points="65,33.4 100.6,16.7 147.3,27.4 114.9,48.1 	"/>
	<polygon id="_x33__1_" class="st6" points="76.3,32.4 100.7,21.2 136,29.1 113.3,42.7 	"/>
	<polygon id="_x32__7_" class="st7" points="76.3,32.4 100.7,21.2 100.7,26.3 84.4,34.4 	"/>
	<polygon id="_x31__7_" class="st8" points="136,29.1 100.7,21.2 100.7,26.3 129.2,33.2 	"/>
</g>
<linearGradient id="layer8_1_" gradientUnits="userSpaceOnUse" x1="-793.8083" y1="640.0782" x2="-793.8083" y2="639.0782" gradientTransform="matrix(170.3026 0 0 -73.2894 135342.8438 46990.3633)">
	<stop  offset="0" style="stop-color:#8AB4FF;stop-opacity:0"/>
	<stop  offset="0.8858" style="stop-color:#8AB4FF"/>
	<stop  offset="0.9999" style="stop-color:#8AB4FF;stop-opacity:0"/>
</linearGradient>
<polygon id="layer8" class="st9" points="70.1,79.4 134,152.7 188.6,150.2 240.4,80.8 "/>
<g id="layer7" transform="translate(103.089991, 5.000000)">
	<polygon id="_x31_0" class="st10" points="59.3,0.7 58.6,60.1 120.8,90.2 120.8,29.4 	"/>
	<polygon id="_x39_" class="st11" points="33.8,15 33.8,73.4 111.5,95.3 111.5,39.1 	"/>
	<polygon id="_x38_" class="st12" points="15,33.1 15,94.9 99.4,107.2 99.4,48 	"/>
	<path id="_x37_" class="st13" d="M0.5,55.8l84.4,3.5v60.4L0.5,116V55.8z"/>
	<polygon id="_x36_" class="st14" points="6.4,52.3 0,55.3 85.4,58.9 89.8,55.6 	"/>
	<polygon id="_x35_" class="st15" points="89.8,55.6 85.4,58.9 85.4,120.3 89.8,116.1 	"/>
	<g id="_x34_" transform="translate(9.065112, 65.534125)">
		<circle id="_x34_-3" class="st16" cx="12.6" cy="12.6" r="13.9"/>
		<circle id="_x34_-2" class="st17" cx="12.6" cy="12.6" r="12.9"/>
		<defs>
			<filter id="Adobe_OpacityMaskFilter" filterUnits="userSpaceOnUse" x="3" y="4.3" width="19.2" height="20.6">
				<feColorMatrix  type="matrix" values="1 0 0 0 0  0 1 0 0 0  0 0 1 0 0  0 0 0 1 0"/>
			</filter>
		</defs>
		<mask maskUnits="userSpaceOnUse" x="3" y="4.3" width="19.2" height="20.6" id="mask-5_1_">
			<g class="st18">
				<circle id="path-4_1_" class="st0" cx="12.6" cy="12.6" r="12.4"/>
			</g>
		</mask>
		
			<linearGradient id="_x34_-1_1_" gradientUnits="userSpaceOnUse" x1="-869.108" y1="554.4028" x2="-869.108" y2="553.4028" gradientTransform="matrix(19.2312 0 0 -20.6048 16726.5527 11427.7188)">
			<stop  offset="0" style="stop-color:#94C7FF"/>
			<stop  offset="1" style="stop-color:#5B96FF"/>
		</linearGradient>
		<path id="_x34_-1" class="st19" d="M12.7,16.7c-1.8,0-3.4-0.7-4.7-1.8c-3,1.5-5,6.3-5,10h19.2c0-3.7-2-8.3-4.9-10
			C16.1,16,14.5,16.7,12.7,16.7z M12.6,15.3c3,0,5.4-2.5,5.4-5.5s-2.4-5.5-5.4-5.5S7.2,6.8,7.2,9.8C7.2,12.9,9.7,15.3,12.6,15.3z"/>
	</g>
	<path id="_x33_" class="st20" d="M43.1,82.1l17.4,1v4.6l-17.4-1.1V82.1z M43.1,73.7l34.7,1.6v4.6l-34.7-1.7V73.7z M43.1,65.4
		L77.8,67v4.6l-34.7-1.7V65.4z"/>
	<path id="_x32__6_" class="st21" d="M30.8,103l5.5,0.3v8.4l-5.5-0.5V103z M22.8,102.4l5.5,0.3v8.4l-5.5-0.5V102.4z M14.8,101.9
		l5.5,0.3v8.4l-5.5-0.5V101.9z"/>
	<path id="_x31__6_" class="st22" d="M61.8,92.1c0.5,0,0.9,0.2,1.3,0.5l0,0l0,0.1l1.1,0.9l0,0l1.5-0.3c0.5-0.1,0.9,0,1.3,0.2
		c0.4,0.2,0.7,0.6,0.8,1l0,0l0.5,1.4l1.5,0.4c0.5,0.1,0.8,0.4,1.1,0.8c0.2,0.4,0.3,0.8,0.2,1.3l0,0l-0.3,1.4l1,1.1
		c0.3,0.3,0.5,0.8,0.5,1.2c0,0.4-0.2,0.9-0.5,1.2l0,0l-0.1,0l-1,1l0,0l0.3,1.4c0.1,0.4,0,0.9-0.2,1.3l0,0v0
		c-0.2,0.3-0.5,0.6-0.9,0.8l0,0l2.4,3.9c0.2,0.3,0.1,0.6-0.2,0.7c-0.1,0.1-0.2,0.1-0.3,0.1l0,0l-3.3,0l-1.6,2.7
		c-0.1,0.3-0.5,0.4-0.8,0.2c-0.1-0.1-0.2-0.1-0.2-0.2l0,0l-2.5-4.1l-0.4,0.4c-0.4,0.3-0.8,0.5-1.3,0.5s-0.9-0.2-1.3-0.5l0,0
		l-0.4-0.4l-2.5,4.1c0,0.1-0.1,0.2-0.2,0.2c-0.3,0.1-0.6,0.1-0.8-0.2l0,0l-1.6-2.7l-3.3,0c-0.1,0-0.2,0-0.3-0.1
		c-0.3-0.1-0.4-0.5-0.2-0.7l0,0l2.4-3.9c-0.4-0.2-0.7-0.4-0.9-0.8c-0.2-0.4-0.3-0.8-0.2-1.3l0,0l0,0l0.3-1.4l0,0l-1-1
		c-0.3-0.3-0.5-0.8-0.5-1.2c0-0.4,0.2-0.9,0.5-1.2l0,0l0.1-0.1l1-1l-0.4-1.4c-0.1-0.5,0-0.9,0.2-1.3c0.2-0.4,0.6-0.7,1.1-0.8l0,0
		l1.5-0.4l0,0l0.4-1.4c0.1-0.4,0.5-0.8,0.8-1c0.4-0.2,0.9-0.3,1.3-0.2l0,0l1.5,0.3l0,0l1.1-1C60.9,92.3,61.4,92.1,61.8,92.1z
		 M54.8,108.1l-2,3.3l2.6,0c0.2,0,0.4,0.1,0.5,0.3l0,0l1.3,2.2l2-3.3l-1.2,0.3c-0.5,0.1-0.9,0-1.3-0.2c-0.4-0.2-0.7-0.6-0.8-1l0,0
		l-0.5-1.4L54.8,108.1z M68.9,108.1l-0.5,0.1v0l-0.5,1.4l0,0.1c-0.2,0.4-0.4,0.8-0.8,1l0,0l-0.1,0c-0.4,0.2-0.8,0.3-1.3,0.1l0,0l0,0
		l-1.2-0.3l2,3.3l1.3-2.2c0.1-0.2,0.3-0.3,0.5-0.3l0,0l2.6,0L68.9,108.1z M61.9,94L61.9,94l-1.1,0.9l-0.1,0.1
		c-0.2,0.2-0.5,0.3-0.8,0.4c-0.3,0.1-0.6,0.1-0.9,0l0,0l-1.5-0.3l-0.4,1.3l0,0c-0.1,0.3-0.2,0.5-0.5,0.7c-0.2,0.2-0.5,0.3-0.8,0.4
		l0,0L54.5,98l0.3,1.4c0.1,0.3,0.1,0.6,0,0.8l0,0c-0.1,0.3-0.2,0.5-0.4,0.8l0,0l-1,1l0,0l1,1l0.1,0c0.2,0.2,0.3,0.4,0.4,0.7l0,0
		l0,0.1c0.1,0.3,0.1,0.6,0,0.8l0,0l-0.3,1.4l1.4,0.4c0.3,0.1,0.6,0.2,0.8,0.4c0.2,0.2,0.4,0.4,0.5,0.7l0,0l0.4,1.4l1.5-0.3
		c0.3-0.1,0.6-0.1,0.9,0c0.3,0.1,0.6,0.2,0.8,0.4l0,0h0l1.1,1l1.1-0.9l0.1-0.1c0.2-0.2,0.4-0.3,0.7-0.4l0,0l0.1,0
		c0.3-0.1,0.6-0.1,0.9,0l0,0l1.5,0.3l0.4-1.3v0c0.1-0.3,0.3-0.5,0.5-0.7c0.2-0.2,0.5-0.3,0.8-0.4l0,0l1.4-0.4l-0.3-1.4l0,0
		c-0.1-0.3-0.1-0.5,0-0.8l0,0l0-0.1c0.1-0.3,0.2-0.5,0.4-0.7l0,0l1-1l0,0l-1-1c-0.2-0.2-0.4-0.5-0.4-0.7c-0.1-0.3-0.1-0.6,0-0.9l0,0
		l0.3-1.4l-1.4-0.4c-0.6-0.2-1-0.6-1.2-1.2l0,0h0l0,0l-0.4-1.4l-1.4,0.3l0,0c-0.3,0.1-0.6,0.1-0.9,0c-0.3-0.1-0.6-0.2-0.8-0.4l0,0
		L61.9,94z M62,97.3c1.4,0,2.7,0.6,3.6,1.4c0.9,0.9,1.5,2.1,1.5,3.4c0,1.4-0.6,2.6-1.5,3.5c-0.9,0.9-2.2,1.4-3.6,1.4
		c-1.4,0-2.7-0.5-3.6-1.4l0,0l0,0c-0.9-0.9-1.5-2.1-1.5-3.4c0-1.3,0.6-2.6,1.5-3.4C59.2,97.8,60.5,97.3,62,97.3z M62,98.4
		c-1.1,0-2.1,0.4-2.8,1.1c-0.7,0.7-1.2,1.6-1.2,2.7c0,1,0.4,2,1.1,2.7l0,0l0,0c0.7,0.7,1.7,1.1,2.8,1.1c1.1,0,2.1-0.4,2.8-1.1
		c0.7-0.7,1.2-1.6,1.2-2.7c0-1-0.4-2-1.2-2.7C64,98.8,63.1,98.4,62,98.4z"/>
</g>
<g id="layer6" transform="translate(42.000000, 23.000000)" class="st23">
	
		<linearGradient id="_x32__8_" gradientUnits="userSpaceOnUse" x1="-640.75" y1="612.5652" x2="-640.75" y2="613.5652" gradientTransform="matrix(4 0 0 -46 2567 28234)">
		<stop  offset="0" style="stop-color:#E1ECFF;stop-opacity:0"/>
		<stop  offset="1" style="stop-color:#BFD4FF"/>
	</linearGradient>
	<rect id="_x32__5_" x="2" y="10" class="st24" width="4" height="46"/>
	
		<radialGradient id="_x31__8_" cx="-740.6977" cy="568.3528" r="0.7033" gradientTransform="matrix(8 0 0 -8 5929 4550)" gradientUnits="userSpaceOnUse">
		<stop  offset="0" style="stop-color:#E3ECFF"/>
		<stop  offset="1" style="stop-color:#AEC8FF"/>
	</radialGradient>
	<circle id="_x31__5_" class="st25" cx="4" cy="4" r="4"/>
</g>
<g id="layer5" transform="translate(66.000000, 74.000000)" class="st26">
	
		<linearGradient id="_x32__9_" gradientUnits="userSpaceOnUse" x1="-664.75" y1="561.5652" x2="-664.75" y2="562.5652" gradientTransform="matrix(4 0 0 -46 2663 25888)">
		<stop  offset="0" style="stop-color:#E1ECFF;stop-opacity:0"/>
		<stop  offset="1" style="stop-color:#BFD4FF"/>
	</linearGradient>
	<rect id="_x32__4_" x="2" y="10" class="st27" width="4" height="46"/>
	
		<radialGradient id="_x31__9_" cx="-764.6977" cy="517.3528" r="0.7033" gradientTransform="matrix(8 0 0 -8 6121 4142)" gradientUnits="userSpaceOnUse">
		<stop  offset="0" style="stop-color:#E3ECFF"/>
		<stop  offset="1" style="stop-color:#AEC8FF"/>
	</radialGradient>
	<circle id="_x31__4_" class="st28" cx="4" cy="4" r="4"/>
</g>
<g id="layer4" transform="translate(26.000000, 110.000000)" class="st23">
	
		<linearGradient id="_x32__10_" gradientUnits="userSpaceOnUse" x1="-664.7" y1="519.5" x2="-664.7" y2="520.5" gradientTransform="matrix(5 0 0 -28 3329 14587)">
		<stop  offset="0" style="stop-color:#E1ECFF;stop-opacity:0"/>
		<stop  offset="1" style="stop-color:#BFD4FF"/>
	</linearGradient>
	<rect id="_x32__3_" x="3" y="13" class="st29" width="5" height="28"/>
	
		<radialGradient id="_x31__10_" cx="-751.9363" cy="496.1483" r="0.7033" gradientTransform="matrix(11 0 0 -11 8276 5462)" gradientUnits="userSpaceOnUse">
		<stop  offset="0" style="stop-color:#E3ECFF"/>
		<stop  offset="1" style="stop-color:#AEC8FF"/>
	</radialGradient>
	<circle id="_x31__3_" class="st30" cx="5.5" cy="5.5" r="5.5"/>
</g>
<g id="layer3" transform="translate(244.000000, 100.000000)" class="st26">
	
		<linearGradient id="_x32__11_" gradientUnits="userSpaceOnUse" x1="-842.75" y1="528.3077" x2="-842.75" y2="529.3077" gradientTransform="matrix(4 0 0 -26 3375 13773)">
		<stop  offset="0" style="stop-color:#E1ECFF;stop-opacity:0"/>
		<stop  offset="1" style="stop-color:#BFD4FF"/>
	</linearGradient>
	<polygon id="_x32__2_" class="st31" points="2,11 6,11 6,37 2,37 	"/>
	
		<radialGradient id="_x31__11_" cx="-942.6977" cy="491.3528" r="0.7033" gradientTransform="matrix(8 0 0 -8 7545 3934)" gradientUnits="userSpaceOnUse">
		<stop  offset="0" style="stop-color:#E3ECFF"/>
		<stop  offset="1" style="stop-color:#AEC8FF"/>
	</radialGradient>
	<circle id="_x31__2_" class="st32" cx="4" cy="4" r="4"/>
</g>
<g id="layer2" transform="translate(272.000000, 44.000000)" class="st33">
	
		<linearGradient id="_x32__12_" gradientUnits="userSpaceOnUse" x1="-870.75" y1="593.25" x2="-870.75" y2="594.25" gradientTransform="matrix(4 0 0 -56 3487 33288)">
		<stop  offset="0" style="stop-color:#E1ECFF;stop-opacity:0"/>
		<stop  offset="1" style="stop-color:#BFD4FF"/>
	</linearGradient>
	<polygon id="_x32__1_" class="st34" points="2,10 6,10 6,66 2,66 	"/>
	
		<radialGradient id="_x31__12_" cx="-970.6977" cy="547.3528" r="0.7033" gradientTransform="matrix(8 0 0 -8 7769 4382)" gradientUnits="userSpaceOnUse">
		<stop  offset="0" style="stop-color:#E3ECFF"/>
		<stop  offset="1" style="stop-color:#AEC8FF"/>
	</radialGradient>
	<circle id="_x31__1_" class="st35" cx="4" cy="4" r="4"/>
</g>
<g id="layer1" transform="translate(288.000000, 123.000000)" class="st33">
	
		<linearGradient id="_x32__13_" gradientUnits="userSpaceOnUse" x1="-886.75" y1="512.5652" x2="-886.75" y2="513.5652" gradientTransform="matrix(4 0 0 -46 3551 23634)">
		<stop  offset="0" style="stop-color:#E1ECFF;stop-opacity:0"/>
		<stop  offset="1" style="stop-color:#BFD4FF"/>
	</linearGradient>
	<rect id="_x32_" x="2" y="10" class="st36" width="4" height="46"/>
	
		<radialGradient id="_x31__13_" cx="-986.6977" cy="468.3528" r="0.7033" gradientTransform="matrix(8 0 0 -8 7897 3750)" gradientUnits="userSpaceOnUse">
		<stop  offset="0" style="stop-color:#E3ECFF"/>
		<stop  offset="1" style="stop-color:#AEC8FF"/>
	</radialGradient>
	<circle id="_x31_" class="st37" cx="4" cy="4" r="4"/>
</g>
</svg>
