<?xml version="1.0" encoding="utf-8"?>
<!-- Generator: Adobe Illustrator 23.0.1, SVG Export Plug-In . SVG Version: 6.00 Build 0)  -->
<svg version="1.1" id="team" xmlns="http://www.w3.org/2000/svg" xmlns:xlink="http://www.w3.org/1999/xlink" x="0px" y="0px"
	 viewBox="0 0 322 212" style="enable-background:new 0 0 322 212;" xml:space="preserve">
<style type="text/css">
	.st0{fill-rule:evenodd;clip-rule:evenodd;fill:url(#layer10_1_);}
	.st1{fill-rule:evenodd;clip-rule:evenodd;fill:url(#layer9_1_);}
	.st2{fill-rule:evenodd;clip-rule:evenodd;fill:url(#layer8_1_);}
	.st3{fill-rule:evenodd;clip-rule:evenodd;fill:#91B5FF;}
	.st4{fill-rule:evenodd;clip-rule:evenodd;fill:url(#_x32__7_);}
	.st5{fill-rule:evenodd;clip-rule:evenodd;fill:url(#_x31__7_);}
	.st6{fill-rule:evenodd;clip-rule:evenodd;fill:url(#_x32__8_);}
	.st7{fill-rule:evenodd;clip-rule:evenodd;fill:url(#_x31__8_);}
	.st8{fill-rule:evenodd;clip-rule:evenodd;fill:url(#_x32__9_);}
	.st9{fill-rule:evenodd;clip-rule:evenodd;fill:url(#_x31__9_);}
	.st10{fill-rule:evenodd;clip-rule:evenodd;fill:#7596FF;}
	.st11{fill-rule:evenodd;clip-rule:evenodd;fill:#C6D9FF;}
	.st12{fill-rule:evenodd;clip-rule:evenodd;fill:#99BAFF;}
	.st13{fill:#FFFFFF;}
	.st14{fill:#577CF3;}
	.st15{fill:#8AB1FF;}
	.st16{fill-rule:evenodd;clip-rule:evenodd;fill:#FFCDA4;}
	.st17{fill:url(#_x31_2_4_);}
	.st18{fill-rule:evenodd;clip-rule:evenodd;fill:#3D3D3D;}
	.st19{fill:url(#_x31_0_4_);}
	.st20{fill-rule:evenodd;clip-rule:evenodd;fill:#6D9AEF;}
	.st21{fill-rule:evenodd;clip-rule:evenodd;fill:#A4C4FF;}
	.st22{fill-rule:evenodd;clip-rule:evenodd;fill:#8FB6FF;}
	.st23{fill:none;}
	.st24{fill:#FFCCA3;}
	.st25{fill:#B5CEFF;}
	.st26{fill:#3D3D3D;}
	.st27{fill:url(#_x31_1_4_);}
	.st28{fill:url(#_x39__4_);}
	.st29{fill:#7AA5FF;}
	.st30{fill:#4E84F1;}
	.st31{opacity:0.6;fill:url(#_x36__4_);enable-background:new    ;}
	.st32{fill:#80ABFF;}
	.st33{fill:#92B7FF;}
	.st34{fill:#FFCDA4;}
	.st35{fill:#89B8FF;}
	.st36{fill:#F69CB3;}
	.st37{fill:#FFB67B;}
	.st38{fill:#7C9EE4;}
	.st39{fill:#F6CDC1;}
	.st40{fill:#72A8F8;}
	.st41{fill:#D6D5FF;}
</style>
<linearGradient id="layer10_1_" gradientUnits="userSpaceOnUse" x1="-791.748" y1="639.7695" x2="-791.0332" y2="639.9648" gradientTransform="matrix(130.4626 0 0 -65.304 103362.1016 41923.7031)">
	<stop  offset="0" style="stop-color:#A3C2FF"/>
	<stop  offset="0.3694" style="stop-color:#A3C2FF"/>
	<stop  offset="1" style="stop-color:#A3C2FF;stop-opacity:0"/>
</linearGradient>
<path id="layer10" class="st0" d="M76.3,168.9l-24-12.1c-0.9-0.4-1.4-1.3-1.4-2.1s0.5-1.7,1.4-2.1l90.5-45.6c5-2.5,11.1-2.5,16,0
	l20.7,10.4c1.1,0.6,1.8,1.6,1.8,2.7c0,1.1-0.7,2.1-1.8,2.7L88,168.9c-1.8,0.9-3.8,1.4-5.8,1.4C80.1,170.3,78.1,169.8,76.3,168.9z"/>
<linearGradient id="layer9_1_" gradientUnits="userSpaceOnUse" x1="-791.748" y1="639.7695" x2="-791.0332" y2="639.9648" gradientTransform="matrix(130.4626 0 0 -65.304 103407.6406 41943.4336)">
	<stop  offset="0" style="stop-color:#A3C2FF"/>
	<stop  offset="0.3694" style="stop-color:#A3C2FF"/>
	<stop  offset="1" style="stop-color:#A3C2FF;stop-opacity:0"/>
</linearGradient>
<path id="layer9" class="st1" d="M121.9,188.7l-24-12.1c-0.9-0.4-1.4-1.3-1.4-2.1s0.5-1.7,1.4-2.1l90.5-45.6c5-2.5,11.1-2.5,16,0
	l20.7,10.4c1.1,0.6,1.8,1.6,1.8,2.7s-0.7,2.1-1.8,2.7l-91.6,46.2c-1.8,0.9-3.8,1.4-5.8,1.4C125.7,190,123.6,189.6,121.9,188.7z"/>
<linearGradient id="layer8_1_" gradientUnits="userSpaceOnUse" x1="-791.748" y1="639.7695" x2="-791.0332" y2="639.9648" gradientTransform="matrix(130.4626 0 0 -65.304 103450.1016 41964.7031)">
	<stop  offset="0" style="stop-color:#A3C2FF"/>
	<stop  offset="0.3694" style="stop-color:#A3C2FF"/>
	<stop  offset="1" style="stop-color:#A3C2FF;stop-opacity:0"/>
</linearGradient>
<path id="layer8" class="st2" d="M164.3,209.9l-24-12.1c-0.9-0.4-1.4-1.3-1.4-2.1s0.5-1.7,1.4-2.1l90.5-45.6c5-2.5,11.1-2.5,16,0
	l20.7,10.4c1.1,0.6,1.8,1.6,1.8,2.7c0,1.1-0.7,2.1-1.8,2.7L176,209.9c-1.8,0.9-3.8,1.4-5.8,1.4C168.1,211.3,166.1,210.8,164.3,209.9
	z"/>
<g id="layer7" transform="translate(90.000000, 16.458533)">
	<polygon id="_x33__6_" class="st3" points="0.2,26.1 0.2,43.1 4.4,44.4 4.4,27.8 	"/>
	
		<linearGradient id="_x32__7_" gradientUnits="userSpaceOnUse" x1="-872.4529" y1="614.3613" x2="-873.3879" y2="614.1193" gradientTransform="matrix(54.7851 0 0 -27.403 47851.3242 16846.1426)">
		<stop  offset="0" style="stop-color:#BFD3FF;stop-opacity:0"/>
		<stop  offset="1" style="stop-color:#BFD3FF"/>
	</linearGradient>
	<polygon id="_x32__6_" class="st4" points="0.2,26.1 52.2,0.4 55,2.1 4.4,27.8 	"/>
	
		<linearGradient id="_x31__7_" gradientUnits="userSpaceOnUse" x1="-872.2122" y1="619.5989" x2="-871.2122" y2="620.0309" gradientTransform="matrix(50.5345 0 0 -42.3468 44081.1016 26270.4727)">
		<stop  offset="0" style="stop-color:#AAC7FF"/>
		<stop  offset="0.3694" style="stop-color:#AAC7FF"/>
		<stop  offset="1" style="stop-color:#AAC7FF;stop-opacity:0"/>
	</linearGradient>
	<polygon id="_x31__6_" class="st5" points="4.4,27.8 4.4,44.4 54,17.7 55,2.1 	"/>
</g>
<g id="layer6" transform="translate(90.000000, 51.458533)">
	<polygon id="_x33__5_" class="st3" points="0.2,26.1 0.2,43.1 4.4,44.4 4.4,27.8 	"/>
	
		<linearGradient id="_x32__8_" gradientUnits="userSpaceOnUse" x1="-872.4529" y1="579.3613" x2="-873.3879" y2="579.1193" gradientTransform="matrix(54.7851 0 0 -27.403 47851.3242 15887.0361)">
		<stop  offset="0" style="stop-color:#BFD3FF;stop-opacity:0"/>
		<stop  offset="1" style="stop-color:#BFD3FF"/>
	</linearGradient>
	<polygon id="_x32__5_" class="st6" points="0.2,26.1 52.2,0.4 55,2.1 4.4,27.8 	"/>
	
		<linearGradient id="_x31__8_" gradientUnits="userSpaceOnUse" x1="-872.2122" y1="584.5989" x2="-871.2122" y2="585.0309" gradientTransform="matrix(50.5345 0 0 -42.3468 44081.1016 24788.3359)">
		<stop  offset="0" style="stop-color:#AAC7FF"/>
		<stop  offset="0.3694" style="stop-color:#AAC7FF"/>
		<stop  offset="1" style="stop-color:#AAC7FF;stop-opacity:0"/>
	</linearGradient>
	<polygon id="_x31__5_" class="st7" points="4.4,27.8 4.4,44.4 54,17.7 55,2.1 	"/>
</g>
<g id="layer5" transform="translate(23.000000, 65.458533)">
	<polygon id="_x33__4_" class="st3" points="0.2,26.1 0.2,43.1 4.4,44.4 4.4,27.8 	"/>
	
		<linearGradient id="_x32__9_" gradientUnits="userSpaceOnUse" x1="-805.4529" y1="565.3613" x2="-806.3879" y2="565.1193" gradientTransform="matrix(54.7851 0 0 -27.403 44180.7227 15503.3936)">
		<stop  offset="0" style="stop-color:#BFD3FF;stop-opacity:0"/>
		<stop  offset="1" style="stop-color:#BFD3FF"/>
	</linearGradient>
	<polygon id="_x32__4_" class="st8" points="0.2,26.1 52.2,0.4 55,2.1 4.4,27.8 	"/>
	
		<linearGradient id="_x31__9_" gradientUnits="userSpaceOnUse" x1="-805.2122" y1="570.5989" x2="-804.2122" y2="571.0309" gradientTransform="matrix(50.5345 0 0 -42.3468 40695.2891 24195.4824)">
		<stop  offset="0" style="stop-color:#AAC7FF"/>
		<stop  offset="0.3694" style="stop-color:#AAC7FF"/>
		<stop  offset="1" style="stop-color:#AAC7FF;stop-opacity:0"/>
	</linearGradient>
	<polygon id="_x31__4_" class="st9" points="4.4,27.8 4.4,44.4 54,17.7 55,2.1 	"/>
</g>
<g id="layer4" transform="translate(157.403945, 12.000000)">
	<polygon id="_x31_3_3_" class="st10" points="0.2,3.9 2.6,79.7 112.1,111.5 112.1,29.8 	"/>
	<polygon id="_x31_2_3_" class="st11" points="8.1,0.4 0.2,3.9 112.1,29.8 117.9,25.3 	"/>
	<polygon id="_x31_1_3_" class="st12" points="117.9,25.3 112.1,29.8 112.1,111.5 117.9,107.4 	"/>
	<path id="_x31_0_3_" class="st13" d="M17.2,44.5c0.1,0,0.3,0,0.4,0.1l42.9,11.6c1.2,0.3,2.1,1.4,2.1,2.7c0,0.9-0.7,1.6-1.6,1.6
		c-0.1,0-0.3,0-0.4-0.1L17.7,48.8c-1.2-0.3-2.1-1.4-2.1-2.7C15.6,45.2,16.3,44.5,17.2,44.5z M17.2,45.5c-0.4,0-0.6,0.3-0.6,0.6
		c0,0.8,0.5,1.4,1.2,1.7l0.1,0l42.9,11.6c0.1,0,0.1,0,0.2,0c0.4,0,0.6-0.3,0.6-0.6c0-0.8-0.5-1.4-1.2-1.7l-0.1,0L17.4,45.5
		C17.3,45.5,17.3,45.5,17.2,45.5z M17.2,37.5c0.1,0,0.3,0,0.4,0.1l42.9,11.2c1.2,0.3,2.1,1.4,2.1,2.7c0,0.9-0.7,1.7-1.7,1.7
		c-0.1,0-0.3,0-0.4-0.1L17.7,41.8c-1.2-0.3-2.1-1.4-2.1-2.7C15.6,38.2,16.3,37.5,17.2,37.5z M17.2,38.5c-0.4,0-0.7,0.3-0.7,0.7
		c0,0.8,0.5,1.4,1.2,1.7l0.1,0l42.9,11.2c0.1,0,0.1,0,0.2,0c0.4,0,0.7-0.3,0.7-0.7c0-0.8-0.5-1.4-1.2-1.7l-0.1,0L17.4,38.5
		C17.4,38.5,17.3,38.5,17.2,38.5z M12.1,43c1.4,0,2.5,1.1,2.5,2.5c0,1.4-1.1,2.5-2.5,2.5s-2.5-1.1-2.5-2.5C9.6,44.1,10.7,43,12.1,43
		z M12.1,44c-0.8,0-1.5,0.7-1.5,1.5c0,0.8,0.7,1.5,1.5,1.5s1.5-0.7,1.5-1.5C13.6,44.7,12.9,44,12.1,44z M17,31c0.1,0,0.2,0,0.4,0
		l43.4,11.2c1,0.3,1.8,1.2,1.8,2.3c0,0.8-0.6,1.4-1.4,1.4c-0.1,0-0.2,0-0.4,0L17.4,34.7c-1-0.3-1.8-1.2-1.8-2.3
		C15.6,31.7,16.2,31,17,31z M12.1,36c1.4,0,2.5,1.1,2.5,2.5c0,1.4-1.1,2.5-2.5,2.5s-2.5-1.1-2.5-2.5C9.6,37.1,10.7,36,12.1,36z
		 M12.1,37c-0.8,0-1.5,0.7-1.5,1.5c0,0.8,0.7,1.5,1.5,1.5s1.5-0.7,1.5-1.5C13.6,37.7,12.9,37,12.1,37z M17.3,23.5c0.1,0,0.3,0,0.4,0
		l42.8,10.7c1.2,0.3,2.1,1.4,2.1,2.7c0,0.9-0.7,1.7-1.7,1.7c-0.1,0-0.3,0-0.4,0L17.7,27.8c-1.2-0.3-2.1-1.4-2.1-2.7
		C15.6,24.2,16.3,23.5,17.3,23.5z M17.3,24.5c-0.4,0-0.7,0.3-0.7,0.7c0,0.8,0.5,1.4,1.2,1.6l0.1,0l42.8,10.7c0.1,0,0.1,0,0.2,0
		c0.4,0,0.7-0.3,0.7-0.7c0-0.8-0.5-1.4-1.2-1.6l-0.1,0L17.4,24.5C17.4,24.5,17.3,24.5,17.3,24.5z M11.8,29.3c1.2,0,2.2,1,2.2,2.2
		s-1,2.2-2.2,2.2s-2.2-1-2.2-2.2S10.6,29.3,11.8,29.3z M17.3,16.5c0.1,0,0.3,0,0.4,0l42.8,10.7c1.2,0.3,2.1,1.4,2.1,2.7
		c0,0.9-0.7,1.7-1.7,1.7c-0.1,0-0.3,0-0.4,0L17.7,20.8c-1.2-0.3-2.1-1.4-2.1-2.7C15.6,17.2,16.3,16.5,17.3,16.5z M17.3,17.5
		c-0.4,0-0.7,0.3-0.7,0.7c0,0.8,0.5,1.4,1.2,1.6l0.1,0l42.8,10.7c0.1,0,0.1,0,0.2,0c0.4,0,0.7-0.3,0.7-0.7c0-0.8-0.5-1.4-1.2-1.6
		l-0.1,0L17.4,17.5C17.4,17.5,17.3,17.5,17.3,17.5z M12.1,22c1.4,0,2.5,1.1,2.5,2.5S13.5,27,12.1,27s-2.5-1.1-2.5-2.5
		S10.7,22,12.1,22z M12.1,23c-0.8,0-1.5,0.7-1.5,1.5c0,0.8,0.7,1.5,1.5,1.5s1.5-0.7,1.5-1.5C13.6,23.7,12.9,23,12.1,23z M12.1,15
		c1.4,0,2.5,1.1,2.5,2.5c0,1.4-1.1,2.5-2.5,2.5s-2.5-1.1-2.5-2.5C9.6,16.1,10.7,15,12.1,15z M12.1,16c-0.8,0-1.5,0.7-1.5,1.5
		c0,0.8,0.7,1.5,1.5,1.5s1.5-0.7,1.5-1.5C13.6,16.7,12.9,16,12.1,16z"/>
	<path id="_x39__3_" class="st14" d="M71.2,29.8c0.1,0,0.1,0,0.2,0l13.7,2.8c0.5,0.1,0.8,0.5,0.8,1v13.1c0,0.6-0.4,1-1,1
		c-0.1,0-0.1,0-0.2,0L71,44.5c-0.5-0.1-0.8-0.5-0.8-1V30.8C70.2,30.2,70.7,29.8,71.2,29.8z M71.2,30.8v12.8l13.7,3.1V33.5L71.2,30.8
		z"/>
	<path id="_x38__3_" class="st13" d="M71.2,47.8c0.1,0,0.1,0,0.2,0l13.7,3.1c0.5,0.1,0.8,0.5,0.8,1v13.1c0,0.6-0.4,1-1,1
		c-0.1,0-0.2,0-0.2,0L71,62.5c-0.4-0.1-0.8-0.5-0.8-1V48.8C70.2,48.2,70.7,47.8,71.2,47.8z M71.2,48.8v12.7l13.7,3.4V51.8L71.2,48.8
		z"/>
	<path id="_x37__3_" class="st13" d="M90.2,33.8c0.1,0,0.1,0,0.2,0l13.7,2.8c0.5,0.1,0.8,0.5,0.8,1v13.1c0,0.6-0.4,1-1,1
		c-0.1,0-0.1,0-0.2,0L90,48.5c-0.5-0.1-0.8-0.5-0.8-1V34.8C89.2,34.2,89.7,33.8,90.2,33.8z M90.2,34.8v12.8l13.7,3.1V37.5L90.2,34.8
		z"/>
	<path id="_x36__3_" class="st14" d="M90.2,51.8c0.1,0,0.1,0,0.2,0l13.7,3.1c0.5,0.1,0.8,0.5,0.8,1v13c0,0.6-0.4,1-1,1
		c-0.1,0-0.2,0-0.2,0L90,66.4c-0.4-0.1-0.8-0.5-0.8-1V52.8C89.2,52.2,89.7,51.8,90.2,51.8z M90.2,52.8v12.6l13.7,3.5v-13L90.2,52.8z
		"/>
	<path id="_x35__3_" class="st13" d="M104.4,102.4l0-19.6l-13.3,6.3l-9.7-9.2l-11,3.6l-8.9-6.3l-14.2,8.9L104.4,102.4z"/>
	<polygon id="_x34__3_" class="st13" points="49.4,84.6 57.3,69.1 64.1,73.4 74.4,69.2 82.1,85.5 96.6,70.5 102.3,86.2 101.3,86.5 
		96.2,72.4 81.8,87.2 73.9,70.5 64,74.6 57.7,70.6 50.3,85 	"/>
	<polygon id="_x33__3_" class="st13" points="50.5,83.2 62.9,67.2 64.4,76.5 73.6,72.4 83.8,79.4 96.4,79.4 103.3,86 102.7,86.7 
		96,80.4 83.5,80.4 73.4,73.6 63.7,77.9 62.3,69.6 51.3,83.8 	"/>
	<path id="_x32__3_" class="st13" d="M22.5,60.8c-4.6,4-4.8,11.3-0.4,16.3s11.6,5.8,16.2,1.8s4.8-11.3,0.4-16.3S27.1,56.8,22.5,60.8
		z M24.5,63c3.3-2.9,8.7-2.2,11.9,1.5c3.3,3.8,3.2,9.2-0.1,12c-3.3,2.9-8.7,2.2-11.9-1.5S21.2,65.9,24.5,63z"/>
	<path id="_x31__3_" class="st15" d="M30.8,58.3c3,0.4,5.8,1.9,7.9,4.3c4.3,4.9,4.2,12-0.2,16.1l-0.2,0.2l-2-2.3
		c3.3-2.9,3.4-8.3,0.1-12c-1.5-1.8-3.6-2.9-5.7-3.2L30.8,58.3z"/>
</g>
<g id="layer3" transform="translate(79.811301, 87.614641)">
	<path id="_x31_4_2_" class="st16" d="M23.8,21.4c0.1-0.1,0.2-0.3,0.3-0.4c0.1-0.3,0.4-0.6,0.7-0.7c0.4-0.1,1,0.5,1.1,0.6
		c0.1,0.1,0.7-0.2,1-0.2c0.2,0,0.5,0,0.5,0.2c0,0.2-0.7,0.2-1.4,0.6s0,0.3,0.3,0.4c0.3,0.1,0.3,0.3,0,0.3c-0.6,0-1.2,0.1-1.7,0.2
		L23.8,21.4z"/>
	<path id="_x31_3_2_" class="st16" d="M33.6,26.8c0.2-0.1,0.4-0.1,0.6-0.1c0.4,0,0.8-0.1,1.1-0.4c0.3-0.3-0.2-1.1-0.3-1.2
		c0-0.1,0.5-0.6,0.7-0.8c0.1-0.2,0.3-0.4,0-0.5c-0.3-0.1-0.5,0.6-1.2,1.1c-0.7,0.5-0.4,0-0.4-0.4s-0.3-0.4-0.3-0.1
		c-0.2,0.4-0.4,0.8-0.7,1.2L33.6,26.8z"/>
	
		<linearGradient id="_x31_2_4_" gradientUnits="userSpaceOnUse" x1="-781.7176" y1="462.093" x2="-782.6104" y2="462.093" gradientTransform="matrix(8.3837 0 0 -4.4735 6575.3691 2159.0344)">
		<stop  offset="0" style="stop-color:#7AA5FF;stop-opacity:0"/>
		<stop  offset="1" style="stop-color:#7AA5FF"/>
	</linearGradient>
	<path id="_x31_2_2_" class="st17" d="M22.1,89.6c0.3,0.4,0.4,0.9,0.3,1.3c-1.1,1-2.3,1.7-3.6,2.3c-1.6,0.8-3.8,1.1-4.4,0.6
		c-0.5-0.5-0.3-1.6-0.3-1.6S21.8,89.3,22.1,89.6z"/>
	<path id="_x31_1_2_" class="st18" d="M18,89.1c2.2,0,3.6-0.3,4.1,0.5c0.8,1.2-5.5,4.2-7.2,3.5c-1.5-0.6-0.3-2.6-0.3-2.6
		C15.5,89.7,16.7,89.1,18,89.1z"/>
	
		<linearGradient id="_x31_0_4_" gradientUnits="userSpaceOnUse" x1="-781.6982" y1="462.3149" x2="-782.591" y2="462.3149" gradientTransform="matrix(8.382 0 0 -4.4838 6563.7314 2161.655)">
		<stop  offset="0" style="stop-color:#7AA5FF;stop-opacity:0"/>
		<stop  offset="1" style="stop-color:#7AA5FF"/>
	</linearGradient>
	<path id="_x31_0_2_" class="st19" d="M12,86.5c0.3,0.4,0.4,0.9,0.3,1.3c-1.1,1-2.3,1.7-3.6,2.3c-1.6,0.8-3.8,1.1-4.4,0.6
		C3.7,90.3,4,89.2,4,89.2S11.6,86.2,12,86.5z"/>
	<path id="_x39__2_" class="st18" d="M7.8,86.1c2.2,0,3.6-0.3,4.1,0.5c0.8,1.2-5.5,4.2-7.2,3.5c-1.5-0.6-0.3-2.5-0.3-2.5
		C5.3,86.6,6.5,86.1,7.8,86.1z"/>
	<path id="_x38__2_" class="st16" d="M19.5,47.5c0,0,1.2,17.6,0.8,22.1C19.9,74.2,17.8,91,17.8,91c-0.9,0.7-2.1,0.9-3.1,0.4
		c0,0,0.4-16,0.4-20.3c-0.4-4.4-1-8.8-2.1-13.1l-1.6-0.6c0,2-3.5,30.4-3.5,30.4c-2.3,1.4-3.3,0-3.3,0s1.2-27.5,0-31.6
		c-1-4.1-1-8.4,0-12.5C9.5,41.3,19.5,47.5,19.5,47.5z"/>
	<path id="_x37__2_" class="st20" d="M3.2,45c-0.9,0.8-1,6.6,0,10.2C4,58.3,3.4,62.1,3.9,63c1.4,2.2,6.6,4.4,9.5,4.4
		c2.9,0,7.4-0.7,7.7-1.6c0.6-2.3-1.6-18.3-1.6-18.3S4.7,43.7,3.2,45z"/>
	<path id="_x36__2_" class="st21" d="M19.4,25.2c1.9-0.6,3.7-1.5,5.4-2.7c0.3-0.8-0.9-1.2-0.9-1.2l-5.1,1.8
		C18.7,23.1,17.5,25.6,19.4,25.2z"/>
	<path id="_x35__2_" class="st21" d="M15,17.6c2,2.6,3.6,5.6,4.6,8.7c0.2,1.1-1.4,9.1-0.9,11c0.5,1.9,1.6,10.5,0.5,11.3
		c-2.1,1.3-4.5-0.2-9.1-1.4c-3.7-1-6.6-0.8-6.9-2c-0.2-1.2,1.2-6.6,1.2-9.2c0.3-5.9,0.9-11.8,1.9-17.6c0.4-1.8,1.7-3.2,3.4-3.8
		C11.6,15.1,13.5,16.1,15,17.6L15,17.6z"/>
	<path id="_x34__2_" class="st22" d="M19.1,31c0,0-0.4,2.6-0.5,4.1c0,1.1,0.1,2.2,0.3,3.3c0,0,1.6,9,0.2,10C18.2,49,17,49.1,16,48.8
		c0.1-1.1,0.3-9.2-0.7-12.2c-0.6-2.7-0.6-5.5-0.3-8.3L19.1,31z"/>
	<path id="_x33__2_" class="st21" d="M20.7,27.2c4.1,0.3,8.2-0.3,12-1.9c0.4,0.1,0.7,0.3,0.9,0.7c0.2,0.3,0.2,0.7,0.1,1.1
		c-3.8,2.1-7.9,3.5-12.2,4.2c-2.5,0.2-5-0.9-6.6-2.9c-1.4-1.9-3.1-5.7-2.7-7.8c0.2-1.2,0.7-2.4,1.6-3.3
		C17.6,16.7,16.8,26.9,20.7,27.2z"/>
	<path id="_x32__2_" class="st16" d="M12,7.1c-2,2,1.4,4.8,1.4,4.8s3.1,2,4.5,1s1.2-8.2,1.2-8.2S14,5.1,12,7.1z"/>
	<path id="_x31__2_" class="st18" d="M7.9,8.1c-0.2,3.8-5.3,6.7-6.3,7.9c-0.9,1.3-2.4,5.6,2.3,9.1c3.5,2.5,8.8,0.7,10.8-2.9
		c1.3-2.4-0.6-4.8,0.3-6.1c0.9-1.3,2.1-2.1,1.6-4.3c-0.4-1.7-0.9-2.9-0.5-4c0.4-1.1,2.8-1.1,3.7-1.6c0.7-0.7,1-1.6,0.8-2.5
		C20.5,2.8,20,2,19.2,1.6C13.6-1.8,8,4.3,7.9,8.1z"/>
</g>
<g id="layer2" transform="translate(170.811301, 94.614641)">
	<line id="_x31_8_1_" class="st23" x1="22.2" y1="22.8" x2="22.1" y2="22.8"/>
	<path id="_x31_7_1_" class="st24" d="M14,21.4c0,0-2.3-2.9-3.1-4c-0.8-1.1-3.3,1.5,1.9,5.5S14,23,14,23L14,21.4z"/>
	<path id="_x31_6_1_" class="st25" d="M31.8,18.4c0,0,1.1,0.9,0.4,6c-0.8,5.1-0.5,7.7-4.4,6.9s-13.4-4.7-17.5-11.2l1.8-1.3
		c3.1,2.9,6.9,5,11,6.1c6,1.3,2.5-2.5,2.5-2.5L31.8,18.4z"/>
	<path id="_x31_5_1_" class="st24" d="M19,7.3c0,0-1.9,7.7,1.3,8.7c1.9,0.6,4-0.2,5.2-1.9l-0.8-5.2l-3.4-2.3L19,7.3z"/>
	<path id="_x31_4_1_" class="st24" d="M27.2,12.3l0.9,4.5l-4.2,2.4c-0.4-1.8-0.9-3.6-1.6-5.3c-0.8-1.3,0.4-1.5,0.4-1.5L27.2,12.3z"
		/>
	<path id="_x31_3_1_" class="st26" d="M30,5.9c-0.1-1.1-0.8-2.1-1.8-2.5c-0.2,0-0.2-0.2-0.2-0.3c-0.1-1.4-0.9-1.9-2.3-2.4
		c-2.7-1.1-8.8,0-8.5,4.8c0,1,0.7,1.8,1.6,2c1.6,0.5,1.7,1.2,2.2,2.5c0.4,1.2-0.2-1.2,1.9-1c0.9,0.1,0.5,2.2,1.2,3.4
		c1.1,2,3.7,1.1,4.5-0.4C29.7,10.1,30.2,8,30,5.9L30,5.9z"/>
	<path id="_x31_2_1_" class="st26" d="M14.8,97.9c0.5,1.9,5.4,4.4,7.7,4.2c0.8,0,1.5-0.6,1.6-1.3c0-0.2,0-0.4,0-0.6
		c0-0.3,0-0.6-0.1-0.9l-2-2.2c-1.5-0.7-3.2-1-4.8-0.9c-1.6,0.1-2.1,0.7-2.3,1.1C14.8,97.5,14.8,97.7,14.8,97.9z"/>
	
		<linearGradient id="_x31_1_4_" gradientUnits="userSpaceOnUse" x1="-881.8652" y1="461.0807" x2="-882.758" y2="461.0807" gradientTransform="matrix(9.2751 0 0 -4.7685 8202.6279 2298.3745)">
		<stop  offset="0" style="stop-color:#7AA5FF;stop-opacity:0"/>
		<stop  offset="1" style="stop-color:#7AA5FF"/>
	</linearGradient>
	<path id="_x31_1_1_" class="st27" d="M14.8,97.9c0.5,1.9,5.4,4.4,7.7,4.2c0.8,0,1.5-0.6,1.6-1.3c-1.3,0.8-4.2,1.1-9.2-3.4
		C14.8,97.5,14.8,97.7,14.8,97.9z"/>
	<path id="_x31_0_1_" class="st26" d="M25.2,93.9c0.5,1.9,5.4,4.4,7.7,4.2c0.8,0,1.5-0.6,1.6-1.3c0-0.2,0-0.4,0-0.6
		c0-0.5-0.4-3-0.4-3l-1.7-0.1c-1.5-0.7-3.2-1-4.8-0.9c-1.6,0.1-2.1,0.7-2.3,1.1C25.2,93.5,25.2,93.7,25.2,93.9L25.2,93.9z"/>
	
		<linearGradient id="_x39__4_" gradientUnits="userSpaceOnUse" x1="-881.8653" y1="461.08" x2="-882.7581" y2="461.08" gradientTransform="matrix(9.2751 0 0 -4.7684 8212.9922 2294.3801)">
		<stop  offset="0" style="stop-color:#7AA5FF;stop-opacity:0"/>
		<stop  offset="1" style="stop-color:#7AA5FF"/>
	</linearGradient>
	<path id="_x39__1_" class="st28" d="M25.2,93.9c0.5,1.9,5.4,4.4,7.7,4.2c0.8,0,1.5-0.6,1.6-1.3c-1.3,0.8-4.2,1.1-9.2-3.4
		C25.2,93.5,25.2,93.7,25.2,93.9L25.2,93.9z"/>
	<path id="_x38__1_" class="st29" d="M18.3,75.5c0.6,8.1,0.7,21.9,0.7,21.9c0.6,1,1.6,1.7,2.8,1.9c0.4,0.1,0.9,0.1,1.3,0
		c0.6-0.1,1.1-0.2,1.7-0.4c0,0-0.5-18.9-0.9-25.1c-0.1-2.7,0.2-5.5,0.8-8.1l0,0c0.3-1.3,0.7-2.5,1.2-3.7l0,0c0,0,0.7,10.1,0.9,11.8
		c0,0.4,0.2,1.7,0.4,3.4c0.7,6,2,17.5,2,17.5c0.5,0.6,1.2,1,2,1c0.4,0,0.8-0.1,1.1-0.2c0.2-0.1,0.4-0.1,0.6-0.2
		c0.5-0.2,1-0.5,1.5-0.8c0,0-0.9-19.6-0.9-21.3c0-1.7,1.3-18.4,0.5-23.5c-0.4-2.7-2.7-4.8-5.5-4.8c-0.2,0-0.4,0-0.5,0L22.2,46
		l-3.3,5.8c0,0-0.1,1-0.2,2.7C18.2,61.4,18,68.5,18.3,75.5z"/>
	<path id="_x37__1_" class="st30" d="M25.9,61.8c0,0,0.7,10.1,0.9,11.7s2.4,20.9,2.4,20.9c0.7,0.9,2,1.3,3.1,0.8
		c-0.5-3.5-1.3-8.6-2.2-14.9c-1.6-11.8,1.1-20.8,0-20.8S25.9,61.8,25.9,61.8z"/>
	
		<linearGradient id="_x36__4_" gradientUnits="userSpaceOnUse" x1="-916.2192" y1="509.993" x2="-916.1613" y2="509.7084" gradientTransform="matrix(15.2933 0 0 -10.2822 14037.1221 5291.3203)">
		<stop  offset="0" style="stop-color:#110B0E"/>
		<stop  offset="0.89" style="stop-color:#110B29;stop-opacity:0"/>
	</linearGradient>
	<path id="_x36__1_" class="st31" d="M18.8,54.4c1.5,0.3,3.1,0.5,4.6,0.5c5.4-0.2,10.7-5.5,10.7-5.5l-5.4-4.8h-0.5l-5.8,1.3L19,51.8
		C19,51.8,18.9,52.7,18.8,54.4z"/>
	<path id="_x35__1_" class="st24" d="M6.1,29.9l-4.9-2.3C-0.2,27-1.3,30.7,5.7,32c6.9,1.3,1.2-0.5,1.2-0.5L6.1,29.9z"/>
	<path id="_x34__1_" class="st32" d="M28.1,16.2c0.3,0.3,0.6,0.7,0.9,1.1l-0.9,4.3L25,22.4L23.3,21l0.4-2.2
		C25.1,17.8,26.5,16.9,28.1,16.2L28.1,16.2z"/>
	<path id="_x33__1_" class="st25" d="M1.9,30.8c0,0,6.7,4.3,13.1,4.2c1.2,0,2.4-0.2,3.6-0.5l-0.3,16.8c1.2,1.1,2.8,1.8,4.4,1.9
		c2.7,0.2,6.8-0.6,12.5-4.3c0,0-1-26.8-2.9-29.6c-1.9-2.9-4.6-1.3-5.8-0.8c-0.5,0.2-0.9,0.5-1.3,0.8c-2.3,2.1-4.1,4.5-5.5,7.3
		c-3.8,7.1-17,2.1-17,2.1L1.9,30.8z"/>
	<path id="_x32__1_" class="st33" d="M18.6,34.4l-0.3,16.8c1.2,1.2,2.8,1.8,4.4,1.9c-0.4-2.7,0.2-21.9,0.2-21.9s-5.6,0.3-5.9,0.8
		c-0.1,0.2-1.1,1.5-2.1,3C16.2,34.9,17.4,34.7,18.6,34.4z"/>
	<path id="_x31__1_" class="st25" d="M1.9,30.8c0,0,9.7,5.8,16.7,3.7c13.3-5.2,6.8-15.3,6.8-15.3l0,0c-2.3,2.1-4.1,4.5-5.5,7.3
		c-3.8,7.1-17,2.1-17,2.1L1.9,30.8z"/>
</g>
<g id="layer1" transform="translate(124.070709, 45.618230)">
	<polygon id="_x32_3" class="st34" points="20.6,85.2 20.8,83.1 18.2,83.1 17.6,83.1 17.6,86.1 	"/>
	<path id="_x32_2" class="st35" d="M27.1,17.1l-3.9,2.8l-2.3-2.1c0,0-0.4,0.3-3.4,1.6c-3,1.4-4.1,2.7-4.1,2.7L9,28.4l-4,5
		c0.1,0.1,1.2,0.4,1.3,0.5c2.9,2.4,4.7,0.6,4.7,0.6l4.8-4.4v13.7l15.4-0.3l-0.7-6.5c2.3-0.8,4.6-0.7,5-3c0.3-3-0.7-5.6-1.3-9.9
		c-0.3-1.7-0.7-3.3-3-4.5L27.1,17.1z"/>
	<path id="_x32_1" class="st36" d="M20.2,9.4l-0.8,2C16.7,11.1,17.9,4.8,20.2,9.4L20.2,9.4z"/>
	<path id="_x32_0" class="st26" d="M19,4.9c0,0-0.9,0.2-1.4,1.1c-0.5,0.9,1.1,3.6,1.1,3.6L19,4.9z"/>
	<path id="_x31_9" class="st26" d="M26.6,4.4c0,0,1.3-0.1,1.6,1.5c0.3,1.6-1.1,4.6-1.1,4.6c0.2,2.2-0.5,3.9-2.4,1.9
		C24,11.4,23.5,6,23.5,6S20,6.6,18.6,5.5c-1.4-1.1-2.9-4.3-1-4.9c2-0.6,2.4,0.8,6.6,0.6C26.5,1,27.4,2.8,26.6,4.4L26.6,4.4z"/>
	<path id="_x31_8" class="st24" d="M26.5,11.4c0,0-0.2,2.7-0.1,3.9c0,1.2,0,1.8,0,1.8l-2.9,2.6L22,18.3l0.8-3L26.5,11.4z"/>
	<path id="_x31_7" class="st37" d="M26.5,11.4l-3.7,3.9l-0.6,2.3c0.6,0.1,1.3,0.1,1.7-0.4c1.1-1.1,1.5-3.8,1.5-3.8L26.5,11.4z"/>
	<path id="_x31_6" class="st24" d="M26.5,11.4c2.8-0.3,1.5-6.6-0.8-2c-0.6-1-1.9-2.5-1.2-4.5c-2.1,0.7-3.8,1.2-6,0.6
		C17.7,15.1,22.5,20.9,26.5,11.4z"/>
	<path id="_x31_5" class="st36" d="M26.4,10.1c0,0,0.1-0.8,0.5-1.3c0.4-0.5,0.7,0.1,0.7,0.1s-0.4-0.1-0.6,0.2
		c-0.2,0.3,0.5,0.8-0.2,1.2C26.3,10.7,26.4,10.1,26.4,10.1z"/>
	<path id="_x31_4" class="st13" d="M23.5,19.7l2.9-2.9l0-1c1,0.7,1.3,1.3,1.2,1.9l-2,4.3L23.5,19.7z"/>
	<path id="_x31_3" class="st13" d="M22,18.3l0.5-1.8c-1.1,0.3-2.5,1.1-2.3,2.1c0.1,0.3,1.3,3.4,1.3,3.4l2-2.2L22,18.3z"/>
	<path id="_x31_2" class="st38" d="M16.3,43.7c-0.3,1.1-0.5,2.9-0.5,5.2c0,1.6,0,5.3,0,14.3c0,2.3,0.3,6.5,0.8,12.5l1,7.4h3.2
		l2.5-32.9l6.4,32.9h2.9c-0.8-21.5-1.2-32.9-1.3-34.2s-0.4-3.2-0.9-5.5L16.3,43.7z"/>
	<path id="_x31_1" class="st26" d="M11.4,88.6h9.5l-0.3-3.3l-1.1-0.3c-0.8-0.8-2.2-1-3.1,0.2c0,0-1.8,1.3-2.6,1.4
		C11.9,86.6,11.2,86.9,11.4,88.6L11.4,88.6z"/>
	<polygon id="_x31_0" class="st34" points="30.1,85.2 29.7,83.1 32,83.1 32.7,83.1 33,86.1 	"/>
	<path id="_x39_" class="st26" d="M37.3,88.6h-7.4l0.1-3.2l1.2-0.3c0.8-0.8,2.1-1.1,2.8,0.1C35,87.3,37.5,86.4,37.3,88.6L37.3,88.6z
		"/>
	<path id="_x38_" class="st39" d="M6.7,26.3c-0.3-2.3-2-0.6-2,0.4c0,0-0.5-1.2-0.8-1.6c-0.2-0.3-0.6-0.5-1.3-0.4
		c-1.7,0.4-3,3.2-2.3,5c0.3,0.5,2.8,2.8,2.8,2.8l0.1,0.1l2.7-1.3c0-0.4,0.1-0.8,0.2-1.4C7.5,29.3,7.2,28.5,6.7,26.3L6.7,26.3z"/>
	<polygon id="_x37_" class="st40" points="22.9,32.6 29.5,30.6 28.8,27.5 	"/>
	<path id="_x36_" class="st40" d="M30.4,36.9l-4.6,0.5c0,0,1.2,2.1,2.3,3.6c1.1,1.4,3,2.4,3,2.4L30.4,36.9z"/>
	<path id="_x35_" class="st41" d="M5.6,22.2l-2.3-1.3c-0.6-0.4-1.1-0.1-1.1,0.7v15.9c0,0.7,0.5,1.6,1.1,2l2.3,1.3
		c0.6,0.4,12.3,0.5,12.3-0.2l-0.5-18.3C17.4,21.5,6.2,22.6,5.6,22.2z"/>
	<path id="_x34_" class="st39" d="M4.7,26.9c0-0.1,0-0.2,0-0.2L4,25.1c-0.2-0.3-0.6-0.5-1.3-0.4c-1.7,0.4-3,3.2-2.3,5
		c1.5,1,2-0.8,3.3-1.4C4.6,27.9,4.7,27.2,4.7,26.9z"/>
	<path id="_x33_" class="st39" d="M17.4,30.7c-0.1,0.5-0.3,2.3-0.5,2.3c-1,0.1-2.1,0.2-3.1,0.3c-0.4,0.1-0.8,0.4-0.9,1
		c-0.3,1.8,1.8,4.1,3.7,4c0.6,0,3.7-1.5,3.7-1.5l0.1,0l-0.2-3c-0.3-0.1-0.7-0.4-1.2-0.7C18.5,32.7,18.9,30.9,17.4,30.7L17.4,30.7z"
		/>
	<polygon id="_x32_" class="st37" points="20.5,36.9 19.1,33.1 20.4,33.9 20.6,36.8 	"/>
	<polygon id="_x31_" class="st13" points="20.6,37.6 20.3,33.2 22,32.9 22.2,37.5 	"/>
</g>
</svg>
