<?xml version="1.0" encoding="utf-8"?>
<!-- Generator: Adobe Illustrator 23.0.1, SVG Export Plug-In . SVG Version: 6.00 Build 0)  -->
<svg version="1.1" id="enterprise" xmlns="http://www.w3.org/2000/svg" xmlns:xlink="http://www.w3.org/1999/xlink" x="0px" y="0px"
	 viewBox="0 0 322 212" style="enable-background:new 0 0 322 212;" xml:space="preserve">
<style type="text/css">
	.st0{fill-rule:evenodd;clip-rule:evenodd;fill:#5B7EEE;}
	.st1{fill-rule:evenodd;clip-rule:evenodd;fill:#0350FF;}
	.st2{fill-rule:evenodd;clip-rule:evenodd;fill:url(#_x34_4_1_);}
	.st3{fill-rule:evenodd;clip-rule:evenodd;fill:#F0F5FF;}
	.st4{fill-rule:evenodd;clip-rule:evenodd;fill:#2370FF;}
	.st5{fill-rule:evenodd;clip-rule:evenodd;fill:#F4F8FF;}
	.st6{fill-rule:evenodd;clip-rule:evenodd;fill:url(#_x34_0_1_);}
	.st7{fill-rule:evenodd;clip-rule:evenodd;fill:#E4EDFF;}
	.st8{fill-rule:evenodd;clip-rule:evenodd;fill:#1768FF;}
	.st9{fill-rule:evenodd;clip-rule:evenodd;fill:#C0D4FF;}
	.st10{fill-rule:evenodd;clip-rule:evenodd;fill:#035BFF;}
	.st11{fill-rule:evenodd;clip-rule:evenodd;fill:#D6E3FE;}
	.st12{fill-rule:evenodd;clip-rule:evenodd;fill:#1366FF;}
	.st13{fill-rule:evenodd;clip-rule:evenodd;fill:#1C6CFF;}
	.st14{fill-rule:evenodd;clip-rule:evenodd;fill:#E8F0FF;}
	.st15{fill-rule:evenodd;clip-rule:evenodd;fill:#085CF8;}
	.st16{fill-rule:evenodd;clip-rule:evenodd;fill:#095BFF;}
	.st17{fill-rule:evenodd;clip-rule:evenodd;fill:#F4F7FF;}
	.st18{fill-rule:evenodd;clip-rule:evenodd;fill:#D8E6FF;}
	.st19{fill-rule:evenodd;clip-rule:evenodd;fill:#3E79FF;}
	.st20{fill-rule:evenodd;clip-rule:evenodd;fill:#EBF2FF;}
	.st21{fill-rule:evenodd;clip-rule:evenodd;fill:#3473FF;}
	.st22{fill-rule:evenodd;clip-rule:evenodd;fill:#E3EDFF;}
	.st23{fill-rule:evenodd;clip-rule:evenodd;fill:#F6F9FF;}
	.st24{fill-rule:evenodd;clip-rule:evenodd;fill:#6DA0FF;}
	.st25{fill-rule:evenodd;clip-rule:evenodd;fill:#F9FBFF;}
	.st26{fill-rule:evenodd;clip-rule:evenodd;fill:#3C80FF;}
	.st27{fill-rule:evenodd;clip-rule:evenodd;fill:#B3CCFF;}
	.st28{fill-rule:evenodd;clip-rule:evenodd;fill:#C9DBFF;}
	.st29{fill-rule:evenodd;clip-rule:evenodd;fill:#DEE9FF;}
	.st30{fill-rule:evenodd;clip-rule:evenodd;fill:#DBE7FF;}
	.st31{fill-rule:evenodd;clip-rule:evenodd;fill:#E9F0FF;}
	.st32{fill-rule:evenodd;clip-rule:evenodd;fill:#BBD2FF;}
	.st33{fill-rule:evenodd;clip-rule:evenodd;fill:#D4E2FF;}
	.st34{opacity:0.3;fill-rule:evenodd;clip-rule:evenodd;fill:url(#layer4_1_);enable-background:new    ;}
	.st35{opacity:0.3;fill-rule:evenodd;clip-rule:evenodd;fill:url(#layer3_1_);enable-background:new    ;}
	.st36{opacity:0.25;fill-rule:evenodd;clip-rule:evenodd;fill:url(#layer2_1_);enable-background:new    ;}
	.st37{opacity:0.4;fill-rule:evenodd;clip-rule:evenodd;fill:url(#layer1_1_);enable-background:new    ;}
</style>
<path id="layer11" class="st0" d="M18.1,145.5L140.5,92l46.5,18.4l42.9-12.6l56.5,24.2l-51.6,25.8l23.3,12.4
	C191.5,193.4,157.6,210,156.4,210S109.1,188.5,18.1,145.5z"/>
<g id="layer10" transform="translate(40.983754, 11.000000)">
	<polygon id="_x34_5" class="st1" points="86.9,93.2 52.3,109.2 82.4,122.9 119,105 	"/>
	
		<linearGradient id="_x34_4_1_" gradientUnits="userSpaceOnUse" x1="-824.436" y1="631.8423" x2="-823.436" y2="631.8423" gradientTransform="matrix(54.854 0 0 -118.3824 45279.7812 74859.1172)">
		<stop  offset="0" style="stop-color:#2371FF"/>
		<stop  offset="0.4889" style="stop-color:#2371FF"/>
		<stop  offset="0.4997" style="stop-color:#4D8CFF"/>
		<stop  offset="1" style="stop-color:#4D8CFF"/>
	</linearGradient>
	<path id="_x34_4" class="st2" d="M57.4,12.5L83.5,0.9l0,0l26.3,11.6c0.7,0.3,1.2,1,1.2,1.8v90.6c0,0.8-0.4,1.5-1.1,1.8l-26.4,12.6
		l0,0L57.4,108c-0.7-0.3-1.2-1-1.2-1.8V14.3C56.2,13.5,56.6,12.8,57.4,12.5z"/>
	<path id="_x34_3" class="st3" d="M57.4,12.5L83.5,0.9l0,0L110,12.6c0.6,0.3,1,0.8,1,1.5c0,0.7-0.4,1.2-1,1.5L83.5,28.3l0,0L57.4,17
		c-0.7-0.3-1.2-1-1.2-1.8v-0.8C56.2,13.5,56.6,12.8,57.4,12.5z"/>
	<path id="_x34_2" class="st4" d="M61.8,12.8l21.7-9.2l0,0l22.3,9.4c0.5,0.2,0.8,0.7,0.8,1.2c0,0.5-0.3,1-0.8,1.2L83.5,25.6l0,0
		l-21.7-9c-0.7-0.3-1.2-1-1.2-1.8v-0.1C60.6,13.8,61.1,13.1,61.8,12.8z"/>
	<path id="_x34_1" class="st5" d="M65.5,13.3L83.6,6l0,0l18.4,7.4c0.3,0.1,0.6,0.5,0.6,0.9c0,0.4-0.2,0.7-0.6,0.9l-18.6,7.9l0,0
		l-17.9-7c-0.6-0.2-0.9-0.8-0.9-1.4C64.6,14.1,65,13.5,65.5,13.3z"/>
	
		<linearGradient id="_x34_0_1_" gradientUnits="userSpaceOnUse" x1="-824.436" y1="631.0292" x2="-823.436" y2="631.0292" gradientTransform="matrix(54.854 0 0 -96.8517 45279.7812 61183.1211)">
		<stop  offset="0" style="stop-color:#E1ECFF"/>
		<stop  offset="0.4701" style="stop-color:#E1ECFF"/>
		<stop  offset="0.5368" style="stop-color:#F2F7FF"/>
		<stop  offset="1" style="stop-color:#F2F7FF"/>
	</linearGradient>
	<path id="_x34_0" class="st6" d="M111,99v2.7l-27.5,13.6l-27.4-11.8v-2.6l27.4,11.6L111,99z M111,93.2v2.7l-27.5,13.6L56.2,97.7
		v-2.6l27.4,11.6L111,93.2z M111,87.5v2.7l-27.5,13.6L56.2,92v-2.6l27.4,11.6L111,87.5z M111,81.7v2.7L83.5,98.1L56.2,86.2v-2.6
		l27.4,11.6L111,81.7z M111,76v2.7L83.5,92.3L56.2,80.5v-2.6l27.4,11.6L111,76z M111,70.2v2.7L83.5,86.6L56.2,74.7v-2.6l27.4,11.6
		L111,70.2z M111,64.5v2.7L83.5,80.8L56.2,69v-2.6l27.4,11.6L111,64.5z M111,58.7v2.7L83.5,75.1L56.2,63.2v-2.6l27.4,11.6L111,58.7z
		 M111,53v2.7L83.5,69.3L56.2,57.5v-2.6l27.4,11.6L111,53z M111,47.2v2.7L83.5,63.6L56.2,51.7v-2.6l27.4,11.6L111,47.2z M111,41.5
		v2.7L83.5,57.8L56.2,46v-2.6l27.4,11.6L111,41.5z M111,35.7v2.7L83.5,52L56.2,40.2v-2.6l27.4,11.6L111,35.7z M111,30v2.7L83.5,46.3
		L56.2,34.5v-2.6l27.4,11.6L111,30z M111,24.2v2.7L83.5,40.5L56.2,28.7v-2.6l27.4,11.6L111,24.2z M111,18.5v2.7L83.5,34.8L56.2,22.9
		v-2.6l27.4,11.6L111,18.5z"/>
	<path id="_x33_9" class="st7" d="M112.4,73.5v63l33.6,11.3l69.5-34.1c0-60.3,0-90.5,0-90.5s-9.6-3.3-28.9-10l-23.9,10v28.3
		L112.4,73.5z"/>
	<path id="_x33_8" class="st8" d="M151.8,84.9V142l-3,1.5V86L151.8,84.9z M156.9,82.5V142l-3,1.5V83.8L156.9,82.5z M162,78.6V137
		l-3,1.5V79.9L162,78.6z M167.1,76.6V135l-3,1.5V77.9L167.1,76.6z M172.2,75.6V132l-3,1.5V76.9L172.2,75.6z M199.5,31.9v89.6l-3,1.5
		V33.2L199.5,31.9z M204.2,29.9v89.3l-3,1.5V31.2L204.2,29.9z M208.8,27.7v89.3l-3,1.5V29L208.8,27.7z M213.5,24.9v89.8l-3,1.5V26.3
		L213.5,24.9z M177.4,72.6V106l-3.1,1.4l0.1-33.5L177.4,72.6z M182.6,70.6V104l-3.1,1.4l0.1-33.5L182.6,70.6z M187.8,67.6V101
		l-3.1,1.4l0.1-33.5L187.8,67.6z M193,65.6V99l-3.1,1.4l0.1-33.5L193,65.6z"/>
	<polygon id="_x33_7" class="st9" points="112.4,73.5 112.4,142.5 146,153.8 146,86 	"/>
	<path id="_x33_6" class="st10" d="M115.4,76.5l3.1,1.8v54l-3.1,0.2V76.5z M120.4,78.8l3.1,0.4v53.1l-3.1,0.2V78.8z M125.4,79.9
		l3.1,1.1v51.4l-3.1,0.2V79.9z M130.4,81.6l3.1,1.3v49.3l-3.1,0.2V81.6z M135.4,83.6l3.1,0.9v47.8l-3.1,0.2V83.6z M140.4,84.9
		l3.1,1.1v46.3l-3.1,0.2V84.9z"/>
	<polygon id="_x33_5" class="st11" points="112.4,73.5 112.4,76.9 146,88.8 193.8,65.1 193.8,62.2 146,86 	"/>
	<polygon id="_x33_4" class="st9" points="162.8,23.2 162.8,51.4 193.8,62.2 193.8,33.4 	"/>
	<path id="_x33_3" class="st12" d="M192,34.2v28l-3.1-0.8l0.1-27.2H192z M183.9,32.7l3.1,1.4v28l-3.1-0.8V32.7z M178.9,31.2l3.1,1
		v28l-3.1-0.8V31.2z M173.9,29.4l3.1,1.3v28.4l-3.1-0.8V29.4z M169,28.5l3.1,0.6v28l-3.1-0.8L169,28.5z M167,27.2v28l-3.1-0.8
		l0.1-27.2H167z"/>
	<polygon id="_x33_2" class="st11" points="162.8,23.2 162.8,27 193.8,37 215.6,26.8 215.6,23.2 193.8,33.2 	"/>
	<polygon id="_x33_1" class="st3" points="112.4,73.5 146,86 193.8,62.2 162.8,51.4 	"/>
	<polygon id="_x33_0" class="st13" points="119.2,73.5 146,83 187.8,62.7 162.8,54.1 	"/>
	<polygon id="_x32_9" class="st14" points="124.2,73 146,80.9 183.1,62.8 162.8,55.9 	"/>
	<polygon id="_x32_8" class="st0" points="172.9,106.7 172.9,135.8 193,124.8 193,96 	"/>
	<polygon id="_x32_7" class="st15" points="172.9,106.7 172.9,117.8 193,124.8 193,96 	"/>
	<path id="_x32_6" class="st3" d="M193.8,33.2c14.5-6.7,21.8-10.1,21.8-10.1s-9.6-3.3-28.9-10l-23.9,10L193.8,33.2z"/>
	<path id="_x32_5" class="st16" d="M193.8,31.2c11.1-5.3,16.7-7.9,16.7-7.9s-7.9-2.6-23.7-7.7L169,22.9L193.8,31.2z"/>
	<path id="_x32_4" class="st14" d="M193.8,29.1c8.3-3.8,12.5-5.7,12.5-5.7s-6.4-2.1-19.3-6.3l-13.3,5.6L193.8,29.1z"/>
	<polygon id="_x32_3" class="st10" points="37.3,119.3 0.3,136.2 28.1,148.8 68,128.8 	"/>
	<polygon id="_x32_2" class="st17" points="5.1,81 41.2,67 62,74 28,88.5 	"/>
	<polygon id="_x32_1" class="st18" points="5.1,81 5.1,135.6 28.1,145.6 28,88.5 	"/>
	<path id="_x32_0" class="st19" d="M22.1,90l2.9,0.9v50.4l-2.9-1.3V90z M17.1,88l2.9,0.9v50.4l-2.9-1.3V88z M12.1,86l2.9,0.9v50.4
		l-2.9-1.3V86z M7.1,84l2.9,0.9v50.4L7.1,134V84z"/>
	<polygon id="_x31_9" class="st20" points="62,74 62,129.2 28.1,145.6 28.1,88.5 	"/>
	<path id="_x31_8" class="st21" d="M33.6,90v49.2l-2.5,1.4V91.2L33.6,90z M38.5,88v49.2l-2.5,1.4V89.2L38.5,88z M43.5,86v49.2
		l-2.5,1.4V87.2L43.5,86z M48.5,84v49.2l-2.5,1.4V85.2L48.5,84z M53.5,81v49.2l-2.5,1.4V82.2L53.5,81z M58.5,79.3v49.2l-2.5,1.4
		V80.5L58.5,79.3z"/>
	<polygon id="_x31_7" class="st20" points="62,90 62,93.6 28.1,109.6 28.1,105.5 	"/>
	<polygon id="_x31_6" class="st20" points="62,105 62,108.6 28.1,125.6 28.1,121.5 	"/>
	<polygon id="_x31_5" class="st22" points="5.1,97 5.1,101 28,109.6 28,105.5 	"/>
	<polygon id="_x31_4" class="st22" points="5.1,113 5.1,117 28,125.6 28,121.5 	"/>
	<polygon id="_x31_3" class="st23" points="56.4,130.6 92.8,115.3 131.3,128.6 155.4,118.3 178.6,127.3 178.6,158.5 118,187.1 
		62,162.6 56.4,160.1 	"/>
	<polygon id="_x31_2" class="st24" points="64.4,130.1 92.8,117.9 131.7,131.6 154.8,121.3 171.7,127.7 117.5,151.2 	"/>
	<polygon id="_x31_1" class="st10" points="56.4,130.6 117.5,155.1 117.5,187.1 56.4,160.1 	"/>
	<polygon id="_x31_0" class="st25" points="56.4,134.6 117.5,159.3 117.5,163 56.4,138.1 	"/>
	<polygon id="_x39_" class="st25" points="56.4,134.6 117.5,159.3 117.5,163 56.4,138.1 	"/>
	<polygon id="_x38_" class="st25" points="56.4,140.6 117.5,165.3 117.5,169 56.4,144.1 	"/>
	<polygon id="_x37_" class="st25" points="56.4,146.6 117.5,172.3 117.5,176 56.4,150.1 	"/>
	<polygon id="_x36__2_" class="st25" points="56.4,152.6 117.5,179.1 117.5,182.8 56.4,156.1 	"/>
	<polygon id="_x35__1_" class="st26" points="117.5,155.1 178.6,128.6 178.6,158.5 117.5,187.1 	"/>
	<polygon id="_x34__1_" class="st25" points="117.5,159.4 178.6,132.8 178.6,136 117.5,163 	"/>
	<polygon id="_x33__3_" class="st25" points="117.5,165.4 178.6,138.8 178.6,142 117.5,169 	"/>
	<polygon id="_x32__2_" class="st25" points="117.5,172.4 178.6,145 178.6,148.2 117.5,176 	"/>
	<polygon id="_x31__2_" class="st25" points="117.5,179.4 178.6,151.2 178.6,154.4 117.5,183 	"/>
</g>
<g id="layer9" transform="translate(114.328222, 14.964950)">
	<polygon id="_x33__1_" class="st27" points="1.1,10.3 1.1,4.9 11.1,8.6 11.1,14.4 	"/>
	<polygon id="_x32__1_" class="st28" points="11.1,14.4 11.1,8.6 19.8,4.6 19.8,10.3 	"/>
	<polygon id="_x31__1_" class="st29" points="11.1,8.6 1.1,4.9 10.4,0.9 19.8,4.6 	"/>
</g>
<g id="layer8" transform="translate(123.328222, 130.964950)">
	<polygon id="_x36_" class="st30" points="0.1,10.3 0.1,4.4 10.1,8.3 10.1,14.4 	"/>
	<polygon id="_x35_" class="st30" points="19.1,18.3 19.1,12.4 29.1,16.3 29.1,22.4 	"/>
	<polygon id="_x34_" class="st31" points="10.1,14.4 10.1,8.5 18.8,4.4 18.8,10.3 	"/>
	<polygon id="_x33_" class="st31" points="29.1,22.4 29.1,16.5 37.8,12.4 37.8,18.3 	"/>
	<polygon id="_x32_" class="st23" points="10.1,8.6 0.3,4.9 9.4,0.9 18.6,4.6 	"/>
	<polygon id="_x31_" class="st23" points="29.1,16.6 19.3,12.9 28.4,8.9 37.6,12.6 	"/>
</g>
<polygon id="layer7" class="st32" points="223.8,32.8 233.8,36.1 233.8,33.4 223.8,30.2 "/>
<polygon id="layer6" class="st9" points="233.8,36.1 238.2,34.2 238.2,31.6 233.8,33.4 "/>
<polygon id="layer5" class="st33" points="223.8,30.2 228.2,28.5 238.2,31.6 233.8,33.4 "/>
<linearGradient id="layer4_1_" gradientUnits="userSpaceOnUse" x1="-664.4965" y1="636.9791" x2="-664.5043" y2="637.9791" gradientTransform="matrix(6 0 0 -48 4067 30645)">
	<stop  offset="0" style="stop-color:#00FFF4;stop-opacity:0"/>
	<stop  offset="1" style="stop-color:#00D1FF"/>
</linearGradient>
<polygon id="layer4" class="st34" points="77,27.1 80,22 83,27.1 83,70 77,70 "/>
<linearGradient id="layer3_1_" gradientUnits="userSpaceOnUse" x1="-697.7463" y1="639.0657" x2="-697.7545" y2="640.0657" gradientTransform="matrix(8 0 0 -62.4441 5859 40025.8828)">
	<stop  offset="0" style="stop-color:#00FFF4;stop-opacity:0"/>
	<stop  offset="1" style="stop-color:#00D1FF"/>
</linearGradient>
<polygon id="layer3" class="st35" points="273,63 277,57.6 281,63 281,120 273,120 "/>
<linearGradient id="layer2_1_" gradientUnits="userSpaceOnUse" x1="-664.4925" y1="632.4686" x2="-664.5101" y2="633.4686" gradientTransform="matrix(6 0 0 -32 4161 20301)">
	<stop  offset="0" style="stop-color:#00FFF4;stop-opacity:0"/>
	<stop  offset="1" style="stop-color:#00D1FF"/>
</linearGradient>
<polygon id="layer2" class="st36" points="171,34.8 174,30 177,34.8 177,62 171,62 "/>
<linearGradient id="layer1_1_" gradientUnits="userSpaceOnUse" x1="-637.897" y1="636.1591" x2="-637.9035" y2="637.1591" gradientTransform="matrix(5 0 0 -44 3225 28117)">
	<stop  offset="0" style="stop-color:#00FFF4;stop-opacity:0"/>
	<stop  offset="1" style="stop-color:#00D1FF"/>
</linearGradient>
<polygon id="layer1" class="st37" points="33,85.8 35.5,82 38,85.8 38,126 33,126 "/>
</svg>
